<svg width="25" height="20" viewBox="0 0 25 20" fill="none" xmlns="http://www.w3.org/2000/svg">
<path d="M24.5264 7.16016C24.7168 7.00879 25 7.15039 25 7.38965V17.375C25 18.6689 23.9502 19.7188 22.6562 19.7188H2.34375C1.0498 19.7188 0 18.6689 0 17.375V7.39453C0 7.15039 0.27832 7.01367 0.473633 7.16504C1.56738 8.01465 3.01758 9.09375 7.99805 12.7119C9.02832 13.4639 10.7666 15.0459 12.5 15.0361C14.2432 15.0508 16.0156 13.4346 17.0068 12.7119C21.9873 9.09375 23.4326 8.00977 24.5264 7.16016ZM12.5 13.4688C13.6328 13.4883 15.2637 12.043 16.084 11.4473C22.5635 6.74512 23.0566 6.33496 24.5508 5.16309C24.834 4.94336 25 4.60156 25 4.24023V3.3125C25 2.01855 23.9502 0.96875 22.6562 0.96875H2.34375C1.0498 0.96875 0 2.01855 0 3.3125V4.24023C0 4.60156 0.166016 4.93848 0.449219 5.16309C1.94336 6.33008 2.43652 6.74512 8.91602 11.4473C9.73633 12.043 11.3672 13.4883 12.5 13.4688Z" fill="white"/>
</svg>
