<svg width="43" height="32" viewBox="0 0 43 32" fill="none" xmlns="http://www.w3.org/2000/svg">
<path d="M6.27462 3.23588C6.37187 3.08722 6.5546 3.01909 6.7237 3.0036C6.86616 2.98626 7.00553 3.03457 7.13685 3.08412C7.26073 3.15102 7.38461 3.25137 7.4961 3.33189C7.6014 3.4025 7.67883 3.50656 7.74511 3.6131C7.83926 3.83237 7.89996 4.07147 7.87394 4.31304C7.83306 4.36073 7.79962 4.41462 7.75254 4.4555C7.67025 4.51226 7.58092 4.55807 7.48681 4.59177L7.79652 4.92625C7.90801 5.03589 7.97181 5.18331 8.05667 5.31339C8.131 5.22048 8.25179 5.1926 8.34284 5.12756C8.47601 5.03032 8.59804 4.91449 8.74793 4.84263C8.79439 4.82653 8.84518 4.83458 8.8935 4.83025L8.93685 4.86122C8.94181 5.02474 9.02481 5.16968 9.0756 5.32144L9.35062 6.09694C9.37911 6.09818 9.41256 6.09632 9.43548 6.09508C9.46831 5.9297 9.5575 5.78538 9.63555 5.63982C9.7136 5.5116 9.7681 5.36913 9.86349 5.25207C9.98242 5.09907 10.0865 4.92997 10.2333 4.80175L10.3219 4.80361C10.3305 4.99873 10.3126 5.1957 10.351 5.38896C10.3844 5.53638 10.3615 5.68875 10.385 5.83679C10.4129 6.05049 10.3677 6.27286 10.4358 6.48098C10.5349 6.65441 10.7084 6.76839 10.8199 6.93315L11.3265 7.49867C11.4226 7.61017 11.4919 7.74272 11.5929 7.85174C11.6722 7.94031 11.7341 8.03756 11.8159 8.12923C11.8553 8.1711 11.8896 8.21746 11.9181 8.26736C11.9676 8.34974 12.0444 8.40983 12.0946 8.49035C12.1442 8.55229 12.1888 8.63777 12.2569 8.69042C12.3219 8.66564 12.3777 8.61237 12.4533 8.63034L12.4966 8.67803C12.5412 8.68546 12.6001 8.67803 12.6224 8.72758C12.6738 8.82979 12.7537 8.91465 12.7946 9.02181C12.8782 8.9673 12.9705 8.92703 13.0547 8.87315C13.1786 8.79882 13.3254 8.82173 13.4623 8.81616C13.5862 8.80997 13.6933 8.86571 13.8091 8.83474C13.9361 8.80129 14.042 8.91527 14.1684 8.89978C14.2471 8.87624 14.3171 8.83041 14.3914 8.79634L14.864 8.6291C15.0356 8.54238 15.2214 8.49283 15.4029 8.43832L15.9604 8.36027C16.0576 8.34789 16.1462 8.31072 16.2515 8.3293C16.4949 8.36275 16.7396 8.39868 16.9861 8.39496C17.1608 8.38443 17.3355 8.40549 17.5064 8.43832C17.6452 8.4631 17.7641 8.54362 17.9004 8.57707C18.0205 8.61423 18.1295 8.67927 18.2503 8.71582C18.477 8.81492 18.6573 8.99641 18.8846 9.09552L19.3386 9.35753C19.4551 9.45663 19.5914 9.52972 19.696 9.64246C19.7592 9.70564 19.8063 9.78616 19.8819 9.83571C19.9488 9.88093 20.0262 9.915 20.0689 9.98809C20.2523 10.1095 20.3755 10.2978 20.5273 10.4539C20.6016 10.5295 20.6543 10.631 20.7503 10.6831L20.8017 10.6056C20.855 10.5784 20.9088 10.5487 20.9689 10.5363C21.1476 10.5031 21.3293 10.4893 21.5109 10.4954C21.6695 10.488 21.8132 10.5679 21.9693 10.5883C22.0932 10.5988 22.2121 10.675 22.3372 10.7085C22.4103 10.7332 22.4921 10.7332 22.5621 10.7667L22.8594 10.8986L23.293 11.191C23.3797 11.2529 23.4577 11.3396 23.5513 11.4003C23.602 11.3062 23.7197 11.3043 23.799 11.2604C23.9774 11.1761 24.1583 11.0931 24.3218 10.9798C24.4456 10.9001 24.5764 10.8319 24.7127 10.776C25.0081 10.6273 25.2949 10.4557 25.6108 10.3548C25.6975 10.3133 25.801 10.3052 25.8747 10.2309C25.8041 10.1144 25.8598 9.98313 25.8784 9.86173C25.8957 9.73784 25.9713 9.64617 26.0537 9.56441C26.2146 9.44526 26.4111 9.38412 26.6111 9.39097C26.797 9.37363 26.963 9.4715 27.0782 9.60529C27.1452 9.69901 27.2001 9.80077 27.2417 9.90818C27.2027 9.99986 27.1897 10.0983 27.1624 10.1931C27.1296 10.3046 27.0299 10.3696 26.9531 10.4409C26.8273 10.5363 26.7053 10.6484 26.543 10.6725L26.1361 10.6075C26.0654 10.6694 26.0208 10.7574 25.9409 10.8088C25.8889 10.8423 25.8573 10.8974 25.8171 10.937L25.4504 11.2387L24.9425 11.5651C24.8421 11.6394 24.7517 11.7305 24.6371 11.785C24.4141 11.8934 24.2407 12.0792 24.0406 12.2229C24.0932 12.3369 24.1149 12.4614 24.1397 12.5847C24.1583 12.7445 24.1168 12.903 24.118 13.0628C24.1118 13.1595 24.1285 13.2611 24.092 13.3527C24.0654 13.4345 24.009 13.5032 23.9929 13.5881C23.9607 13.7275 23.8987 13.8569 23.8566 13.9932C23.8337 14.0719 23.7811 14.1357 23.7451 14.21C23.6789 14.3376 23.6374 14.4782 23.5612 14.6015L23.4509 14.7718C23.389 14.9 23.2837 15.0084 23.2031 15.1323C23.104 15.2376 22.9894 15.333 22.912 15.4569C22.8067 15.5473 22.7225 15.6638 22.5918 15.7201L22.5893 15.8713C22.5521 15.9357 22.5224 16.01 22.4605 16.0546C22.4134 16.0843 22.3589 16.0558 22.3118 16.0422C22.2914 15.9298 22.2803 15.8158 22.2784 15.7015L22.2685 15.7449L22.2486 15.6099L22.23 15.4197L22.1576 15.4172C22.1023 15.3656 22.055 15.3061 22.017 15.2407C21.916 15.1478 21.8497 15.0264 21.7556 14.9291C21.6936 14.8523 21.6038 14.8003 21.5574 14.7123C21.4707 14.6194 21.3994 14.511 21.2985 14.4324C21.0804 14.2236 20.8258 14.0595 20.5812 13.8842C20.4313 13.8018 20.2839 13.7151 20.1228 13.6569C19.8911 13.5144 19.6124 13.5082 19.3609 13.4184C19.2476 13.3701 19.1225 13.3936 19.0035 13.3775C18.7991 13.3453 18.5904 13.3664 18.3841 13.3664C18.1655 13.3583 17.9487 13.4264 17.7622 13.5398C17.6916 13.5856 17.6012 13.5664 17.5287 13.6104C17.3336 13.7188 17.1273 13.8037 16.9192 13.8811L16.4206 14.145C16.2595 14.249 16.0781 14.3172 15.9207 14.4287L15.1824 14.8622C14.9482 15.022 14.6782 15.1212 14.4577 15.3039C14.288 15.3987 14.1455 15.5331 13.9993 15.6594C13.9374 15.7214 13.8878 15.7833 13.8135 15.831C13.7224 15.8905 13.6729 15.9945 13.5843 16.0571L13.5719 16.1004L13.4889 16.15C13.4827 16.1958 13.4982 16.2429 13.5013 16.2881C13.5137 16.3798 13.4951 16.4739 13.5211 16.5638C13.562 16.7168 13.5905 16.8735 13.6016 17.032C13.645 17.4384 13.7342 17.8373 13.9113 18.2089C13.9782 18.3285 14.0043 18.4654 14.065 18.5806C14.1176 18.6871 14.156 18.8011 14.218 18.9027C14.2799 18.9857 14.3195 19.0885 14.3802 19.1672C14.4794 19.314 14.5432 19.4769 14.6385 19.6317C14.6782 19.7079 14.7345 19.7791 14.7463 19.8671C14.7741 20.0388 14.8189 20.2073 14.8801 20.37C14.8677 20.4196 14.8652 20.4753 14.8287 20.5144C14.7668 20.5924 14.6831 20.6661 14.5809 20.7051C14.4224 20.7813 14.2434 20.7826 14.0718 20.795C13.9479 20.8117 13.8333 20.8247 13.7187 20.7912C13.6791 20.7727 13.6481 20.8074 13.6196 20.8284C13.4784 20.8482 13.352 20.9195 13.212 20.9449L12.9209 21.0687C12.7165 21.1617 12.4873 21.1926 12.2643 21.1926L11.7155 21.257C11.5173 21.2546 11.3228 21.3146 11.1234 21.3091C10.9958 21.306 10.8669 21.3153 10.7393 21.293C10.4879 21.2558 10.2519 21.1567 10.0146 21.07C9.89447 21.0266 9.78297 20.961 9.65785 20.9337C9.45035 20.8829 9.25523 20.7888 9.07313 20.6859C9.01614 20.6457 8.97278 20.5893 8.92447 20.5404C8.71882 20.6197 8.54043 20.759 8.32859 20.8241C8.08083 20.8947 7.87642 21.0595 7.64228 21.1623L6.87174 21.5556C6.60539 21.7043 6.3248 21.8219 6.04792 21.9477C5.9643 21.9873 5.86705 22.0059 5.79768 22.0716C5.80187 22.2574 5.7664 22.4419 5.69361 22.6129C5.64299 22.6863 5.601 22.7653 5.56849 22.8483C5.39506 23.0868 5.13676 23.246 4.87227 23.3637C4.7775 23.4132 4.66601 23.3928 4.56381 23.386C4.46099 23.3674 4.34949 23.3612 4.25906 23.3023C4.13064 23.2141 4.04019 23.0808 4.00572 22.9288C4.00262 22.8266 3.99457 22.7232 4.00572 22.621C4.03049 22.5169 4.08748 22.4246 4.1265 22.3255C4.17606 22.2016 4.28569 22.1044 4.37427 22.0078C4.47833 21.9118 4.58177 21.8071 4.71309 21.7495C4.86794 21.6956 5.03022 21.6547 5.19499 21.6751C5.29409 21.6906 5.41178 21.6702 5.48735 21.752C5.58026 21.6882 5.63415 21.5897 5.70415 21.5042C5.93828 21.337 6.14083 21.1282 6.37621 20.9628L6.75529 20.6036C6.88289 20.4846 6.98013 20.3347 7.12693 20.2288C7.25949 20.1235 7.35983 19.9829 7.49734 19.8838C7.61751 19.8008 7.71414 19.6881 7.82687 19.5964L8.22515 19.2601L8.18365 19.2136C8.14121 19.051 8.12326 18.8829 8.13038 18.715C8.14091 18.531 8.08393 18.3477 8.11799 18.1649C8.13658 18.0101 8.22453 17.8763 8.26789 17.7289C8.31446 17.6169 8.36741 17.5077 8.42646 17.4018C8.56645 17.2265 8.64821 17.0135 8.78138 16.8338L9.15736 16.3228C9.22596 16.2281 9.31883 16.1536 9.42619 16.1073C9.40018 16.0051 9.4138 15.8967 9.38593 15.7957C9.3339 15.5851 9.3116 15.3671 9.27443 15.1527C9.21621 14.9669 9.1425 14.7922 9.15055 14.599C9.09171 14.3376 9.01552 14.0663 9.07436 13.7969C9.11772 13.6085 9.11772 13.4128 9.16975 13.227C9.19763 13.1174 9.20196 12.9997 9.25647 12.8987C9.31841 12.7643 9.34629 12.6125 9.40885 12.4763L9.73094 11.9405L9.97499 11.6555L10.5913 11.0826C10.7796 10.9215 10.9146 10.7109 11.1221 10.566L11.3699 10.3678C11.461 10.2612 11.4709 10.112 11.4702 9.97756C11.4622 9.83695 11.5725 9.71864 11.6982 9.66785C11.8027 9.6291 11.9022 9.57772 11.9943 9.51486C11.9038 9.42195 11.8506 9.30178 11.7731 9.20515C11.7564 9.17666 11.7285 9.15064 11.731 9.11472C11.7453 9.07879 11.7657 9.05278 11.7843 9.01251L11.8865 8.92765C11.4715 8.51265 11.098 8.05676 10.7406 7.58973L10.2667 7.0942C10.1534 6.99695 10.0598 6.87616 9.98056 6.75042C9.94092 6.49522 9.96817 6.23507 9.91862 5.98049L9.72165 6.32427C9.62688 6.51009 9.54636 6.69406 9.4169 6.85263C9.37788 6.8997 9.33018 6.94306 9.30974 7.00128C9.26886 7.12207 9.29611 7.24905 9.25275 7.37541C9.22178 7.38346 9.18895 7.3878 9.15736 7.39399C9.10038 7.31842 9.12268 7.22056 9.09728 7.13384L8.86686 6.22578C8.81979 6.12048 8.79563 6.00651 8.7597 5.89749L8.65131 5.55867C8.59928 5.58964 8.55406 5.63053 8.5045 5.66645C8.37814 5.74078 8.22887 5.77609 8.11923 5.87829C8.05729 5.94023 7.93774 5.95696 7.88014 5.88077C7.8182 5.79591 7.75935 5.6999 7.69741 5.61071C7.58406 5.44966 7.52893 5.2595 7.43974 5.08544C7.39142 4.94422 7.31895 4.81476 7.25701 4.68035C7.11403 4.69731 6.96923 4.67167 6.84077 4.60664C6.73794 4.55337 6.61158 4.52612 6.54716 4.42082C6.44496 4.31366 6.37745 4.18172 6.3025 4.04917C6.22507 3.85529 6.16623 3.65089 6.15508 3.44091C6.14517 3.35419 6.21702 3.29349 6.26162 3.22845L6.27462 3.23588ZM6.31798 3.49851C6.30559 3.55859 6.33037 3.61806 6.33966 3.6769C6.39231 3.84414 6.42452 4.03182 6.55274 4.16004C6.62955 4.27587 6.7014 4.4171 6.842 4.46975C6.95536 4.51001 7.06933 4.55399 7.19073 4.56514C7.19197 4.50691 7.17835 4.43258 7.24029 4.40037C7.30594 4.39418 7.35426 4.44188 7.40133 4.4809C7.4738 4.46046 7.55123 4.44745 7.61627 4.40657C7.67511 4.33534 7.72343 4.24428 7.70732 4.14889C7.69246 4.03492 7.6875 3.91723 7.64352 3.80946L7.64724 3.83671C7.5853 3.59948 7.38089 3.43719 7.18888 3.30402C7.03155 3.22349 6.85563 3.14916 6.676 3.18323C6.59359 3.2017 6.51736 3.24119 6.45474 3.29785C6.39211 3.3545 6.34521 3.42641 6.3186 3.50656L6.31798 3.49851ZM7.50725 4.86122C7.57787 4.99005 7.63547 5.12509 7.69679 5.25764C7.75811 5.39019 7.85165 5.50355 7.91359 5.62929L7.98358 5.75317C8.16197 5.61876 8.38805 5.57602 8.56459 5.43975L8.64387 5.33816L8.7182 5.33569C8.75537 5.39639 8.79439 5.46081 8.79253 5.53514C8.78819 5.716 8.90403 5.86652 8.935 6.03996C8.9511 6.13473 8.98765 6.22392 9.01986 6.31374C9.05702 6.52062 9.12701 6.71945 9.16728 6.92572C9.21692 6.87452 9.26385 6.82077 9.30788 6.76467C9.5445 6.38931 9.74147 5.9904 9.92729 5.59212C9.94588 5.56115 9.9818 5.54257 10.0091 5.51903L10.071 5.55744L10.0611 6.06226C10.0636 6.18862 10.0332 6.31002 10.0567 6.44134C10.0673 6.50637 10.0629 6.56522 10.0722 6.63769C10.1236 6.72069 10.2066 6.7783 10.2581 6.85696C10.3386 6.9666 10.4439 7.04588 10.5417 7.14437C10.6396 7.23852 10.7152 7.35249 10.8069 7.45222C10.9184 7.55752 10.9927 7.69688 11.0837 7.81457L11.8295 8.69414C11.8815 8.74864 11.9162 8.81802 11.9435 8.88739C12.0079 8.85147 12.0903 8.81678 12.12 8.74493C12.0271 8.58574 11.8939 8.45566 11.7608 8.32992C11.6517 8.19365 11.5328 8.06358 11.4436 7.91306C11.3011 7.76006 11.1859 7.58353 11.049 7.42496C10.971 7.31223 10.8632 7.2348 10.7734 7.12764C10.6198 6.93315 10.4352 6.76839 10.2766 6.57823C10.232 6.44381 10.2599 6.29949 10.237 6.16198C10.1974 5.89068 10.2568 5.61442 10.2085 5.34436L10.1961 5.05014C10.0764 5.17282 9.97046 5.30825 9.88022 5.45399C9.81828 5.57664 9.73404 5.68627 9.67333 5.80954C9.61263 5.9328 9.52344 6.03872 9.45344 6.15641C9.40823 6.24312 9.29859 6.25118 9.21311 6.24622L9.12516 6.08827C9.09171 5.99164 9.08365 5.8882 9.06321 5.78972C8.98579 5.55434 8.94924 5.30533 8.83651 5.08359L8.79687 4.96714C8.67298 5.02598 8.58193 5.13252 8.47044 5.20995C8.36514 5.26817 8.24621 5.30038 8.14958 5.37533L7.97986 5.38152C7.93651 5.301 7.88571 5.22357 7.81014 5.16968C7.6906 5.08297 7.63361 4.93431 7.51468 4.84759L7.52336 4.82901C7.51716 4.75468 7.42115 4.82901 7.49486 4.84883L7.50725 4.86122ZM15.5596 8.56344C15.3738 8.5684 15.2177 8.65883 15.0424 8.69042C14.8999 8.72139 14.7804 8.81306 14.6354 8.83412C14.493 8.89606 14.3418 8.93942 14.2093 9.02366C14.1374 9.07136 14.0439 9.0856 13.995 9.16861C13.7553 9.28877 13.4994 9.36248 13.2653 9.50742L12.2513 10.0556L11.5464 10.4322L11.513 10.5561C11.4634 10.5586 11.4077 10.5394 11.3662 10.5728C11.2175 10.6657 11.0936 10.7908 10.9617 10.9061C10.7759 11.1228 10.5653 11.3043 10.3572 11.4945L10.0208 11.8259C9.87836 11.9931 9.74457 12.1678 9.64918 12.3635C9.63679 12.3772 9.62564 12.3945 9.61387 12.4094C9.74023 12.371 9.86164 12.309 9.99667 12.3041C10.0989 12.3022 10.1998 12.2811 10.302 12.2793C10.4835 12.2892 10.6613 12.2403 10.8446 12.252C10.9902 12.2384 11.1314 12.2787 11.2751 12.288C11.5539 12.3796 11.84 12.4614 12.0965 12.6101C12.3442 12.7216 12.6007 12.8553 12.7983 13.0548C13.0045 13.2282 13.2164 13.4004 13.3805 13.6172L13.6407 14.0161C13.8153 13.8229 14.06 13.7095 14.2217 13.502C14.2818 13.4153 14.3827 13.3781 14.462 13.3131C14.5859 13.2016 14.7358 13.1248 14.8739 13.0331L15.3496 12.7965C15.4456 12.7439 15.5565 12.7321 15.6544 12.685C15.7522 12.6379 15.8699 12.6231 15.9424 12.5382C16.1282 12.4948 16.2787 12.392 16.4472 12.3214L16.7538 12.2012C16.879 12.1393 17.0202 12.1102 17.1168 12.0074C17.3695 11.933 17.6012 11.8048 17.852 11.7243C17.9437 11.6871 18.0292 11.6332 18.1271 11.614C18.2305 11.5936 18.3278 11.5521 18.4337 11.5397C18.5935 11.5434 18.7465 11.4827 18.9075 11.4902C19.0611 11.4964 19.2048 11.4003 19.3597 11.4406C19.465 11.4592 19.5331 11.5546 19.6322 11.5893C19.8168 11.6479 19.996 11.7221 20.168 11.811C20.2702 11.8655 20.3817 11.9064 20.4728 11.9801C20.6165 12.1263 20.8011 12.2229 20.9485 12.3642C21.0724 12.5041 21.2272 12.6262 21.34 12.781L21.4731 12.9761C21.5642 13.1235 21.6899 13.2468 21.7717 13.3998C21.8727 13.5466 21.9222 13.7188 21.9786 13.886C22.0417 14.0719 22.1192 14.2701 22.147 14.4726C22.183 14.6244 22.2585 14.7668 22.2678 14.926C22.3403 15.0598 22.3174 15.2159 22.3533 15.3596C22.3803 15.4749 22.3995 15.5918 22.4109 15.7096L22.4431 15.7108L22.4704 15.4055C22.4766 15.2457 22.4468 15.0871 22.4301 14.9285C22.4307 14.7718 22.4295 14.6139 22.4053 14.4578L22.3446 14.1902C22.2003 13.738 22.1155 13.2611 21.8949 12.8355C21.7711 12.5165 21.6943 12.1789 21.5134 11.8878C21.3709 11.7039 21.2885 11.4815 21.1455 11.2981C21.073 11.204 20.9646 11.1482 20.8865 11.0591C20.7707 10.9519 20.6821 10.8193 20.5583 10.7196L20.116 10.2204C20.0553 10.1262 19.9562 10.0705 19.8806 9.99119C19.8224 9.93048 19.753 9.88341 19.6948 9.83014C19.5157 9.65009 19.3157 9.49225 19.0989 9.36C18.9596 9.30735 18.8512 9.21011 18.7149 9.14197L18.215 8.84032C18.0911 8.77466 17.945 8.73192 17.8136 8.66812C17.6755 8.63715 17.5318 8.61733 17.3893 8.63096C17.4327 8.67741 17.4971 8.6898 17.5523 8.71767C17.6266 8.75112 17.6848 8.81182 17.7616 8.83908C17.9053 8.97039 18.0961 9.03605 18.2324 9.17666C18.4523 9.36992 18.635 9.60034 18.8474 9.79607C19.1026 10.0872 19.343 10.3919 19.5313 10.7376L19.784 11.2721C19.8447 11.3712 19.8236 11.4933 19.8274 11.6041L19.7642 11.6209C19.6713 11.3465 19.5319 11.0931 19.4024 10.8354C19.2631 10.5852 19.1064 10.3436 18.9255 10.1231C18.8016 9.97198 18.7013 9.81032 18.5576 9.68953C18.4603 9.60281 18.3816 9.50371 18.2912 9.40584C18.1258 9.28196 17.9815 9.13949 17.7988 9.04534L17.5138 8.87624C17.3807 8.80333 17.2375 8.75032 17.0889 8.71891L16.6467 8.59503L16.3661 8.5207C16.2453 8.47982 16.1202 8.53309 15.9975 8.51698L15.572 8.56034L15.5596 8.56344ZM12.3665 8.78643C12.2135 8.89792 12.0605 9.01313 11.8877 9.09304C11.902 9.12401 11.9175 9.15993 11.9497 9.16613L11.9292 9.17604C12.0098 9.25408 12.0779 9.34328 12.112 9.44982C12.2532 9.3631 12.3944 9.27453 12.5208 9.16737C12.5587 9.13513 12.6016 9.10919 12.6478 9.09056C12.5858 9.01871 12.5573 8.92332 12.4892 8.85642L12.4458 8.76351C12.4149 8.76165 12.3826 8.76289 12.3591 8.78581L12.3665 8.78643ZM12.8621 9.1333C12.7803 9.21196 12.6738 9.25594 12.5858 9.31912C12.4706 9.41513 12.3362 9.48327 12.2123 9.56565C12.0717 9.62759 11.9546 9.74404 11.8078 9.80102C11.7496 9.82952 11.6827 9.85553 11.6493 9.91562C11.5978 10.0067 11.614 10.1138 11.6016 10.2129L12.1857 9.91562C12.3195 9.87412 12.413 9.75953 12.5387 9.70316C12.636 9.6598 12.7233 9.59662 12.8224 9.55574C12.8844 9.52663 12.9352 9.46468 12.9909 9.41947C13.1247 9.33523 13.2634 9.26028 13.4034 9.18781L13.4133 9.194C13.4709 9.17108 13.5372 9.15374 13.5911 9.13206L13.9213 8.99331C13.9479 9.03048 13.9981 8.96234 13.9504 8.95305C13.8476 8.98154 13.7398 8.97968 13.6332 8.98402C13.4753 8.96358 13.3235 8.93571 13.1563 8.94438C13.0659 9.01623 12.9655 9.07322 12.859 9.11781L12.8621 9.1333ZM26.3188 9.59043C26.2395 9.62635 26.1491 9.6567 26.1001 9.73475C26.0239 9.82518 26.0122 9.94659 26.0171 10.0606L25.9942 10.1832C26.0518 10.1863 26.12 10.1603 26.1676 10.2067L26.2222 10.2129L26.3151 10.2891L26.2705 10.4365L26.2562 10.4019L26.2414 10.465C26.3312 10.5041 26.4272 10.5121 26.5306 10.5189C26.6706 10.4588 26.8217 10.3963 26.9147 10.2681C27.0051 10.1751 27.0262 10.0451 27.0615 9.92553L27.0336 9.88217C27.0231 9.8512 27.0107 9.81899 26.9877 9.79545C26.9283 9.67157 26.8193 9.59414 26.701 9.54769C26.5771 9.51548 26.4458 9.57742 26.3182 9.59538L26.3188 9.59043ZM25.9657 10.3412L25.4597 10.5518V10.5536C25.3748 10.5685 25.311 10.6292 25.233 10.662L24.6135 10.9717C24.442 11.0566 24.2939 11.1842 24.1162 11.2579C23.9694 11.3483 23.8083 11.4109 23.6566 11.4902L23.6225 11.4741C23.6615 11.5558 23.7309 11.6165 23.7773 11.6933C23.8388 11.7863 23.8884 11.8866 23.9248 11.9919C23.9328 12.0244 23.9427 12.0565 23.9545 12.0879C24.1403 11.9541 24.2989 11.7968 24.4996 11.6915C24.7102 11.5775 24.8712 11.3911 25.0837 11.2827C25.3029 11.1445 25.5309 11.0076 25.6932 10.7995C25.8171 10.7209 25.9409 10.6261 26.0277 10.5103C26.071 10.4483 26.1354 10.4037 26.1367 10.3257C26.0834 10.3238 26.0277 10.3182 25.9787 10.3424L25.9657 10.3412ZM21.2006 10.6595L21.1572 10.7301L20.9126 10.7828C20.894 10.7952 20.8506 10.8014 20.8766 10.8292C20.9869 10.9575 21.1219 11.0603 21.2408 11.1786L21.4267 11.4065L21.4316 11.5143C21.5208 11.6209 21.584 11.7454 21.6608 11.8612C21.7599 12.0191 21.794 12.2056 21.8714 12.3734C21.9519 12.55 21.9996 12.7451 22.0696 12.9185C22.196 13.1589 22.2325 13.4326 22.3323 13.6841C22.4078 13.8576 22.4252 14.0558 22.4976 14.2261C22.5119 14.3686 22.5844 14.5005 22.5819 14.6473C22.6005 14.8232 22.5695 15.0004 22.6005 15.1757C22.6228 15.2946 22.6067 15.4148 22.6141 15.5349C22.6946 15.4594 22.7764 15.385 22.8618 15.3243C23.0433 15.1137 23.2366 14.9031 23.3537 14.6473C23.4007 14.5339 23.5085 14.4534 23.529 14.3283L23.62 14.096L23.5333 14.0502C23.5271 14.0037 23.5147 13.9449 23.5736 13.9275C23.5983 13.6302 23.5674 13.3317 23.4782 13.048C23.4429 12.8417 23.376 12.6423 23.2948 12.4502L22.9994 11.8209C22.8773 11.6537 22.7888 11.4629 22.6463 11.313C22.5336 11.2077 22.4512 11.0652 22.3087 11.0033C22.2468 10.9228 22.1799 10.8317 22.0764 10.8088L21.553 10.6552C21.4352 10.6412 21.3158 10.6458 21.1993 10.6688L21.2006 10.6595ZM22.466 10.8862C22.4549 10.9147 22.466 10.9284 22.4995 10.9259C22.5435 10.9602 22.582 11.0012 22.6135 11.0473H22.6147C22.8005 11.2312 22.9628 11.4288 23.0892 11.6543C23.1462 11.7639 23.2292 11.8575 23.275 11.9733C23.4156 12.2867 23.568 12.6014 23.6281 12.9433C23.6528 13.0932 23.69 13.2394 23.7284 13.388C23.7575 13.52 23.7482 13.6544 23.7513 13.7888C23.8182 13.6463 23.8554 13.4915 23.9198 13.3478C23.9694 13.2022 23.9941 13.048 23.9632 12.8956C23.996 12.7147 23.9625 12.532 23.9056 12.3598L23.8944 12.3586C23.8864 12.3041 23.8802 12.2471 23.856 12.1975C23.7978 12.0885 23.7569 11.9708 23.6863 11.868C23.6008 11.6915 23.4602 11.5533 23.3196 11.422C23.2688 11.3725 23.2205 11.3105 23.1462 11.3019L22.8278 11.0708L22.8216 11.0603L22.7943 11.0584H22.8148L22.5249 10.9135C22.5162 10.88 22.497 10.8701 22.466 10.8825V10.8862ZM19.0419 11.6599C18.8654 11.7051 18.6802 11.6692 18.503 11.7125C18.2863 11.7311 18.08 11.8079 17.8836 11.8835C17.6761 11.9931 17.4501 12.0619 17.2289 12.1356C17.1267 12.1851 17.0289 12.2427 16.9192 12.2768C16.6714 12.418 16.3816 12.4905 16.1233 12.6237L15.6507 12.8547C15.3063 12.9786 14.986 13.1607 14.6819 13.3639C14.5964 13.4178 14.5209 13.4964 14.4156 13.5063L14.3059 13.6278C14.1362 13.834 13.9113 13.9833 13.7379 14.1852C13.7228 14.201 13.7116 14.2201 13.7051 14.241C13.6215 14.5135 13.5781 14.7953 13.5298 15.0759C13.4666 15.3646 13.4493 15.6644 13.4945 15.9574C13.5657 15.8335 13.7014 15.7591 13.8042 15.6477C13.8909 15.5523 13.9974 15.4779 14.0891 15.3875C14.1808 15.2971 14.2923 15.2413 14.3939 15.1676C14.615 15.0066 14.8646 14.8932 15.0963 14.7495L15.629 14.4287C15.6904 14.3901 15.7545 14.3561 15.821 14.3271C15.9474 14.2651 16.0564 14.1846 16.1803 14.1245L16.8876 13.7343C17.0883 13.6649 17.2636 13.5485 17.4544 13.4506C17.6309 13.406 17.7802 13.2815 17.9654 13.2673C18.399 13.2053 18.8363 13.2053 19.2711 13.2443C19.3764 13.2567 19.4755 13.3026 19.5796 13.3236C20.0646 13.4289 20.5273 13.6426 20.9157 13.9554C21.0036 14.0174 21.1015 14.0743 21.1733 14.1493C21.3331 14.2732 21.5016 14.3971 21.6069 14.568C21.6689 14.6535 21.7494 14.7154 21.7915 14.8108L21.8361 14.8368C21.898 14.939 21.9972 15.0227 22.0417 15.1292C22.0851 15.2345 22.1483 15.3318 22.2325 15.4092C22.2189 15.2741 22.1582 15.1503 22.147 15.0146C22.1328 14.8276 22.0455 14.6585 21.9984 14.4788C21.9464 14.2781 21.8943 14.0762 21.8076 13.8867C21.7599 13.7801 21.7308 13.6662 21.6751 13.5633C21.6032 13.4196 21.4936 13.3007 21.4025 13.1694L21.1548 12.8015C21.1095 12.7358 21.0705 12.6633 21.0061 12.6144C20.8722 12.5108 20.7465 12.3972 20.6301 12.2743C20.5787 12.2198 20.5273 12.1616 20.4567 12.1306C20.2956 12.0544 20.1798 11.9064 20.0126 11.842C19.8781 11.78 19.7264 11.7503 19.5957 11.6735C19.4204 11.6227 19.224 11.6041 19.0518 11.6512L19.0419 11.6599ZM10.5684 12.4156L10.032 12.4577L10.0598 12.4589C9.93225 12.4818 9.80837 12.5233 9.6882 12.5506C9.63122 12.5729 9.55193 12.5735 9.5222 12.6373L9.38407 12.9842C9.29735 13.2964 9.27691 13.6222 9.23417 13.9418C9.21931 14.2218 9.2862 14.4962 9.31841 14.773C9.337 14.9589 9.43486 15.1224 9.46273 15.3057C9.47203 15.5238 9.56618 15.7269 9.57299 15.9462C9.62564 15.9251 9.68139 15.9152 9.73837 15.9152L9.82509 15.8843L9.82819 15.8731C10.076 15.8421 10.338 15.7945 10.5932 15.8298C10.7573 15.8545 10.9276 15.826 11.0887 15.8682C11.2039 15.8973 11.3241 15.8929 11.4387 15.9301C11.6555 16.0075 11.8351 16.163 12.0581 16.2398C12.3244 16.3711 12.5685 16.5446 12.8001 16.7353L13.2182 17.1485C13.3576 17.2872 13.4443 17.4681 13.5564 17.6285C13.5533 17.5183 13.5168 17.413 13.5081 17.304L13.3929 16.5396C13.3756 16.4331 13.3941 16.3216 13.3619 16.2175C13.3712 16.0422 13.3359 15.8694 13.3384 15.6947C13.3365 15.5015 13.3551 15.3107 13.3669 15.1174C13.3935 14.9106 13.466 14.7123 13.4821 14.498C13.4963 14.3927 13.5409 14.2936 13.5298 14.1858C13.5347 14.1158 13.479 14.0663 13.4511 14.0081C13.2653 13.6593 12.9599 13.4023 12.6707 13.144C12.5555 13.0201 12.3981 12.9383 12.2557 12.8454C12.0847 12.7476 11.8939 12.6937 11.7124 12.6206C11.5737 12.5636 11.4232 12.5444 11.2788 12.4843C11.0559 12.3914 10.8081 12.3926 10.5715 12.4205L10.5684 12.4156ZM9.85606 16.0094L9.86473 16.0199C9.77707 16.0379 9.69026 16.0598 9.60458 16.0856L9.59839 16.1463C9.3754 16.3321 9.19329 16.5799 9.02481 16.8152C8.94429 16.9156 8.90093 17.0444 8.80554 17.133C8.74793 17.294 8.61972 17.4155 8.54662 17.5684C8.65688 17.5623 8.76961 17.5331 8.87863 17.5579L8.95296 17.566C9.10595 17.5876 9.26267 17.5969 9.40947 17.6502C9.55193 17.7078 9.70554 17.7369 9.83872 17.8175C10.0518 17.9512 10.2723 18.0801 10.4321 18.2863L10.709 18.5961C10.8303 18.7816 10.9384 18.9756 11.0323 19.1764C11.1067 19.304 11.1389 19.449 11.1822 19.5902C11.207 19.7017 11.2144 19.8151 11.2547 19.9222L11.2881 20.3186C11.2528 20.4072 11.2696 20.5057 11.2522 20.5974C11.2144 20.8024 11.1597 21.004 11.0887 21.2001L11.8753 21.1195C12.0847 21.0805 12.2978 21.0793 12.5071 21.0483C12.6236 21.0328 12.7351 20.9944 12.8491 20.9665C12.9977 20.9213 13.1513 20.8767 13.274 20.7758C13.3483 20.7671 13.4288 20.7659 13.4939 20.7231C13.5416 20.6773 13.5818 20.624 13.6283 20.5775C13.6543 20.4557 13.6717 20.3321 13.6803 20.2078C13.6908 19.9835 13.7584 19.7643 13.7472 19.5388C13.7472 19.3381 13.7361 19.1362 13.767 18.938C13.7565 18.7001 13.7348 18.4511 13.6208 18.238L13.4926 17.8986C13.4059 17.7375 13.3378 17.5641 13.2238 17.4192C13.1173 17.2439 12.9426 17.1311 12.8119 16.9769C12.6632 16.8221 12.4972 16.6815 12.3164 16.5656C12.1058 16.4132 11.858 16.3278 11.6381 16.1921C11.4981 16.1054 11.347 16.0267 11.181 16.0063C10.9952 15.9976 10.8013 15.9555 10.6093 15.9481C10.4594 15.9481 10.3089 15.94 10.1596 15.9524L9.8542 15.997L9.85606 16.0094ZM8.47477 17.696L8.45185 17.7499L8.42522 17.8119C8.36328 17.9605 8.30134 18.1092 8.28399 18.2684C8.27966 18.3799 8.2778 18.4926 8.28771 18.6041L8.33231 19.0792C8.33355 19.1126 8.35709 19.1411 8.39425 19.1164C8.44195 19.0792 8.47229 18.9696 8.54724 19.0111C8.63024 19.0773 8.7405 19.0265 8.83217 19.073C9.03039 19.1517 9.2224 19.2588 9.38097 19.405C9.46002 19.5178 9.52259 19.6413 9.56679 19.7717C9.58538 19.8956 9.60148 20.0368 9.5575 20.1638C9.54016 20.2424 9.45964 20.2765 9.40513 20.3261C9.31222 20.4066 9.19267 20.4419 9.08613 20.4983C9.2286 20.6259 9.41008 20.6946 9.58414 20.7646C9.83043 20.839 10.0701 20.9337 10.3008 21.0477C10.4587 21.1251 10.634 21.1561 10.8087 21.1691C10.883 21.109 10.9623 21.0483 10.9976 20.956C11.0763 20.7677 11.1091 20.5627 11.1265 20.3601C11.1358 20.2387 11.1748 20.1124 11.1246 19.9885C11.0788 19.75 11.0237 19.5134 10.9388 19.2861C10.8434 19.1003 10.7561 18.9144 10.6291 18.7379L10.4296 18.5075C10.3553 18.4294 10.3014 18.3322 10.2166 18.264C10.0908 18.16 9.97189 18.0448 9.82509 17.9698C9.71112 17.9005 9.57733 17.8614 9.45344 17.81C9.24842 17.7267 9.0304 17.68 8.80926 17.6719C8.69776 17.6855 8.58193 17.6564 8.47353 17.6905L8.47477 17.696ZM13.8841 18.6109C13.9064 18.7844 13.9361 18.9603 13.9182 19.1362L13.8872 19.9402C13.8327 20.1842 13.8401 20.4369 13.7899 20.6822C13.9237 20.7256 14.065 20.6822 14.2012 20.6736C14.3914 20.6488 14.6317 20.6302 14.7234 20.4289C14.7296 20.3124 14.6751 20.2047 14.6404 20.0969C14.6094 20.0058 14.6082 19.9111 14.5562 19.8219L14.1845 19.1851C14.1127 19.0711 14.0563 18.9479 13.9906 18.8308C13.9504 18.759 13.9287 18.6735 13.8791 18.6115L13.8841 18.6109ZM8.46672 19.2694C8.39425 19.34 8.32054 19.4093 8.23754 19.4676L8.2363 19.4769C8.10127 19.5462 7.98854 19.6503 7.88138 19.7575L7.48495 20.0981L7.04207 20.5131L6.50752 21.0848C6.41461 21.1437 6.344 21.231 6.25666 21.2985L5.96058 21.55C5.8943 21.612 5.80945 21.6516 5.7537 21.7247L5.66079 21.8486L5.72273 21.9353L5.76856 21.895L5.78715 21.8653L5.80201 21.8901C6.25542 21.7433 6.66671 21.4949 7.10649 21.314L7.52769 21.1133C7.77422 21.0142 7.97553 20.8241 8.23073 20.746C8.32116 20.7151 8.4054 20.6692 8.48964 20.6246L8.82041 20.4574C8.99508 20.3614 9.18338 20.2889 9.34567 20.1725C9.46955 20.0498 9.39026 19.8627 9.36796 19.7234L9.35558 19.7283C9.30974 19.6311 9.26267 19.527 9.16851 19.4669C9.02171 19.3678 8.86624 19.2706 8.69157 19.234C8.6129 19.2235 8.52061 19.2142 8.45929 19.2762L8.46672 19.2694ZM4.79671 21.9421C4.69884 21.9892 4.62947 22.0759 4.54461 22.1403C4.33896 22.3076 4.18411 22.5541 4.17482 22.8254C4.1847 22.9082 4.21728 22.9867 4.26897 23.0521C4.38851 23.2156 4.6115 23.2516 4.79918 23.2193C4.94475 23.1927 5.05067 23.0831 5.17455 23.01C5.23649 22.9741 5.29347 22.948 5.33683 22.8892C5.49045 22.6755 5.6199 22.4327 5.64468 22.1657C5.6334 22.1429 5.62014 22.1212 5.60504 22.1007C5.58522 22.048 5.54743 22.0059 5.51027 21.9657L5.45204 21.8374C5.23153 21.8374 4.99864 21.8362 4.79795 21.9409L4.79671 21.9421ZM15.821 9.27391L16.1759 9.24479C16.3388 9.28691 16.5085 9.2801 16.6714 9.3216C16.8653 9.33399 17.0555 9.37363 17.245 9.41203C17.4408 9.5322 17.6749 9.60157 17.8242 9.7874C17.9151 9.87178 17.9883 9.97339 18.0395 10.0863C18.0908 10.1993 18.1191 10.3212 18.1227 10.4452C18.0819 10.5988 17.9908 10.7772 17.8217 10.8169C17.5739 10.8788 17.3311 10.9953 17.0809 11.069C16.7959 11.1619 16.5408 11.3167 16.2924 11.479L15.8092 11.7608C15.673 11.855 15.5255 11.9318 15.3831 12.016L15.0486 12.2793C14.8306 12.4341 14.5884 12.5469 14.3598 12.6838C14.2502 12.7085 14.1492 12.7643 14.0377 12.7767C13.8023 12.8027 13.5341 12.8114 13.3403 12.6491C13.2337 12.584 13.1947 12.4602 13.1222 12.3642C13.0417 12.2626 13.0405 12.1288 13.02 12.0061C13.0027 11.9021 13.0175 11.7955 13.0324 11.6927C13.046 11.4995 13.1439 11.3211 13.2294 11.1582C13.313 10.9711 13.4536 10.8113 13.4957 10.6056C13.6041 10.4836 13.6815 10.3331 13.7868 10.2142C13.8816 10.1175 13.9479 9.99614 14.0513 9.90818C14.2533 9.67157 14.5605 9.58175 14.8318 9.45292C15.0517 9.37673 15.2852 9.35071 15.515 9.32594C15.6191 9.31726 15.7182 9.27824 15.8229 9.27824L15.821 9.27391ZM15.4642 9.45725C15.1855 9.49937 14.9043 9.55016 14.6491 9.67219L14.3065 9.8704C14.1591 9.98499 14.0538 10.1429 13.925 10.2761L13.6357 10.6329C13.5273 10.7568 13.5007 10.9315 13.3879 11.0529C13.3248 11.1755 13.2851 11.3105 13.2356 11.44C13.2021 11.5862 13.1327 11.7262 13.1489 11.8736C13.1396 12.0792 13.2467 12.2619 13.352 12.4292C13.4511 12.5518 13.6072 12.6026 13.7584 12.6175C13.8531 12.6001 13.9442 12.615 14.0451 12.5952C14.2403 12.5599 14.4118 12.4527 14.5778 12.3487C14.7827 12.2408 14.9772 12.1144 15.1588 11.9708C15.2741 11.8946 15.3806 11.8036 15.5076 11.7466C15.7089 11.6004 15.9306 11.4889 16.1425 11.3607C16.3202 11.2678 16.4831 11.147 16.6708 11.0758C16.8195 10.9829 16.9898 10.9407 17.1447 10.8608C17.2438 10.8131 17.3553 10.8026 17.4544 10.7518C17.5659 10.6979 17.691 10.6899 17.8031 10.6391C17.9245 10.5672 17.9704 10.4068 17.9381 10.2674C17.9289 10.1324 17.8378 10.0283 17.774 9.91624C17.5956 9.72546 17.359 9.60653 17.1156 9.51672C16.8926 9.45911 16.6634 9.44239 16.4385 9.40212C16.2744 9.37115 16.1072 9.39407 15.943 9.38602C15.7789 9.37797 15.629 9.44982 15.4673 9.44362L15.4642 9.45725Z" fill="#0A0203" stroke="#0A0203" stroke-width="0.015"/>
<path d="M14.8423 9.91431C14.8671 9.87281 14.8931 9.81521 14.9526 9.83379C15.025 9.89387 15.095 9.95767 15.178 10.0023C15.3235 10.0905 15.4571 10.1969 15.5757 10.3188L15.6147 10.3175C15.6432 10.2432 15.6599 10.1658 15.6816 10.0896C15.7051 10.0264 15.7795 10.0524 15.8303 10.0524L15.8526 10.1057C15.8526 10.2618 15.9764 10.369 16.0433 10.4978C16.1796 10.4222 16.2279 10.2599 16.3023 10.1311C16.3537 10.0469 16.3246 9.91865 16.4138 9.86042C16.4757 9.85423 16.5029 9.90812 16.5376 9.94714C16.6107 10.0555 16.7049 10.1454 16.7829 10.2519C16.8201 10.2104 16.8709 10.1714 16.8783 10.1119C16.8926 10.0624 16.8814 10.0004 16.9217 9.96201C16.9855 9.93971 17.0487 9.97563 17.1087 9.99298C17.2574 10.0518 17.4184 10.0958 17.551 10.1788C17.6129 10.216 17.678 10.2172 17.7393 10.2445C17.7622 10.2773 17.7579 10.3206 17.7665 10.3584C17.6315 10.4204 17.5169 10.3002 17.3968 10.255L17.0456 10.1206C16.996 10.224 16.9142 10.3045 16.8498 10.3975C16.825 10.4365 16.7879 10.4643 16.7334 10.4551C16.7049 10.4086 16.6863 10.356 16.6566 10.3114C16.5946 10.2215 16.516 10.1584 16.4416 10.0871L16.2992 10.434C16.257 10.5405 16.1536 10.6062 16.1171 10.7165C16.0675 10.7332 16.0142 10.7487 15.9684 10.7121C15.9463 10.5649 15.8738 10.4298 15.7634 10.3299L15.7262 10.5294C15.6903 10.5461 15.6494 10.5746 15.6023 10.5542L15.4351 10.3665C15.3311 10.2764 15.2173 10.1985 15.0956 10.1342C15.1452 10.3306 15.2071 10.5368 15.1576 10.74C15.1725 10.854 15.2034 10.9648 15.2245 11.0776C15.2387 11.142 15.1601 11.1661 15.1111 11.1519C15.0263 11.1321 14.9389 11.1395 14.8535 11.1271C14.7828 11.0986 14.7128 11.0664 14.6367 11.054C14.6391 11.124 14.6912 11.1742 14.7172 11.2355C14.7432 11.2968 14.742 11.3761 14.7593 11.4461C14.7643 11.4814 14.7779 11.5204 14.7593 11.5539C14.7178 11.5805 14.6639 11.5954 14.6168 11.5725C14.5016 11.5273 14.3784 11.513 14.2576 11.4895C14.3195 11.5948 14.41 11.6753 14.4719 11.7868C14.5091 11.8388 14.4552 11.9132 14.3963 11.9057C14.239 11.8933 14.0866 11.907 13.9237 11.8933C13.894 12.0439 13.8228 12.1814 13.7998 12.3319C13.754 12.3232 13.6933 12.3461 13.6598 12.3034C13.6078 12.2569 13.6679 12.1894 13.6809 12.1361C13.7348 12.0284 13.7429 11.9039 13.78 11.7942C13.9008 11.6629 14.0885 11.7756 14.2384 11.7521C14.2012 11.6282 14.0978 11.5663 14.0278 11.4746C13.9832 11.4127 14.0402 11.3594 14.0854 11.3235C14.2588 11.3557 14.4428 11.3483 14.6069 11.4226C14.5945 11.2702 14.4954 11.1469 14.4583 11.0014C14.4936 10.9735 14.5202 10.9432 14.5654 10.9209C14.6311 10.9048 14.6943 10.9357 14.7543 10.958C14.851 10.9964 14.9557 11.0045 15.0641 11.0101C15.0145 10.8094 15.0529 10.6025 15.0226 10.4006L14.8466 9.91741L14.8423 9.91431ZM21.6558 10.9314C21.7289 10.8261 21.916 10.8261 21.9655 10.9543C22.0423 10.9506 22.1315 10.9382 22.186 11.0076C22.2629 11.1488 22.3892 11.2801 22.3799 11.4536C22.3861 11.5353 22.3205 11.596 22.261 11.6406C22.1706 11.7007 22.0578 11.7533 21.9482 11.7193C21.8132 11.6734 21.7345 11.5421 21.6744 11.4207C21.6371 11.345 21.6162 11.2623 21.613 11.178C21.6098 11.0937 21.6244 11.0097 21.6558 10.9314ZM21.7797 11.0677C21.7475 11.2535 21.8107 11.456 21.9761 11.5483C22.0281 11.5855 22.09 11.5471 22.1408 11.5285C22.0355 11.3637 21.9364 11.1878 21.7791 11.0677H21.7797ZM21.9265 11.0708L22.2083 11.3544C22.1724 11.2764 22.1297 11.2008 22.077 11.1327C22.0423 11.0831 21.9779 11.0819 21.9259 11.0708H21.9265ZM22.3682 12.1238C22.4648 12.0711 22.5942 12.0847 22.6562 12.1838C22.7633 12.2086 22.8519 12.2829 22.9077 12.3777C22.9882 12.522 23.0706 12.6664 23.1121 12.8274C23.0638 12.9408 22.9727 13.0256 22.8786 13.0999C22.7683 13.1037 22.6333 13.1111 22.5577 13.0132C22.4617 12.8869 22.3595 12.7518 22.3378 12.5896C22.3049 12.4791 22.2964 12.3629 22.313 12.2489L22.3669 12.125L22.3682 12.1238ZM22.466 12.2922C22.409 12.4942 22.5094 12.6918 22.6196 12.8547C22.6692 12.9116 22.7448 12.9327 22.8055 12.96C22.8005 12.732 22.6816 12.5363 22.5527 12.3548L22.6258 12.3529L22.7887 12.5406C22.8612 12.6249 22.873 12.745 22.9485 12.8268C22.9207 12.7153 22.8457 12.6255 22.7999 12.522C22.7379 12.3907 22.6141 12.299 22.4989 12.2297C22.484 12.2494 22.4711 12.2706 22.4604 12.2929L22.466 12.2922ZM22.9467 13.5527C23.0991 13.5403 23.2254 13.6444 23.34 13.7311C23.4298 13.8005 23.3896 13.9219 23.4131 14.0179C23.423 14.1418 23.4298 14.2812 23.3276 14.3617C23.2409 14.4236 23.1461 14.4961 23.0328 14.4868C22.8841 14.5054 22.7863 14.3629 22.7541 14.2285C22.7243 14.1381 22.714 14.0424 22.7238 13.9477C22.7336 13.853 22.7633 13.7615 22.811 13.6791C22.8463 13.6295 22.8872 13.5726 22.9473 13.5527H22.9467ZM23.1152 13.7528L23.2068 14.0006C23.218 14.078 23.213 14.1573 23.213 14.2359L23.2502 14.2186C23.3047 14.0594 23.2923 13.8321 23.1158 13.759L23.1152 13.7528ZM22.9863 14.3549C23.0173 14.3196 23.0638 14.2892 23.0681 14.231C23.1077 14.065 23.0464 13.8947 22.9492 13.7621C22.8048 13.9275 22.8222 14.1957 22.9863 14.3487V14.3549ZM9.71606 16.3097C9.8771 16.2825 10.0487 16.2602 10.2085 16.3097C10.3324 16.3593 10.46 16.4014 10.5399 16.5092C10.5835 16.599 10.6047 16.698 10.6018 16.7978C10.6037 16.8907 10.5485 16.9688 10.5089 17.0468C10.473 17.1212 10.3925 17.1503 10.328 17.1924C10.1286 17.2339 9.92108 17.18 9.74764 17.0778C9.63491 17.0258 9.53952 16.9434 9.46272 16.8455L9.46581 16.7867L9.41626 16.7594C9.45219 16.6715 9.42122 16.5724 9.46086 16.4869C9.53902 16.4184 9.62486 16.3591 9.71667 16.3104L9.71606 16.3097ZM9.85666 16.4126C9.73278 16.4603 9.59837 16.5166 9.52342 16.6343L9.60394 16.6963C9.66836 16.6126 9.75632 16.5538 9.83932 16.4887C9.91117 16.4311 10.0066 16.4404 10.092 16.4287C10.0146 16.4163 9.93471 16.3667 9.85666 16.4057V16.4126ZM9.7142 16.8461C9.75508 16.9038 9.82321 16.9304 9.88392 16.9614C9.9855 17.0084 10.0945 17.0543 10.2085 17.0456C10.3051 17.0406 10.3918 16.9651 10.4129 16.8697C10.4513 16.7867 10.4482 16.6839 10.3794 16.6194C10.2395 16.5996 10.0945 16.5668 9.95515 16.6009C9.86595 16.6715 9.76809 16.7421 9.71544 16.8455L9.7142 16.8461ZM11.2627 17.4129C11.5105 17.2413 11.8536 17.289 12.0952 17.4532C12.2241 17.5387 12.312 17.6687 12.4018 17.792C12.4848 17.9128 12.4737 18.067 12.4638 18.207C12.4142 18.3346 12.369 18.4758 12.2513 18.5582C12.2126 18.5923 12.1659 18.6161 12.1155 18.6271C12.0651 18.6382 12.0127 18.6362 11.9633 18.6214C11.8431 18.5793 11.7192 18.5378 11.6195 18.4554C11.5216 18.378 11.4721 18.2547 11.3686 18.1828C11.3563 18.1568 11.347 18.1283 11.3234 18.111C11.2132 18.0224 11.1593 17.8868 11.119 17.7554C11.1085 17.6316 11.145 17.4891 11.2565 17.4129H11.2627ZM11.2937 17.634C11.4324 17.5894 11.5768 17.5764 11.7199 17.5585C11.8958 17.5975 12.0754 17.6638 12.2049 17.7957C12.138 17.7127 12.081 17.6248 11.9837 17.5665C11.8326 17.4658 11.6485 17.4272 11.4696 17.4587C11.3937 17.4966 11.3321 17.5581 11.2943 17.634H11.2937ZM11.3792 17.7579C11.2739 17.8087 11.368 17.9345 11.4225 17.9914L11.4306 18.0453C11.4969 18.0682 11.5576 18.1073 11.5954 18.1692C11.7068 18.3284 11.8834 18.4461 12.0785 18.4591C12.2271 18.4145 12.2891 18.2336 12.2891 18.0905C12.128 17.9332 11.9645 17.7418 11.7279 17.7115C11.6115 17.7071 11.4845 17.7003 11.3792 17.7585V17.7579ZM12.369 19.6242C12.4879 19.5276 12.6403 19.465 12.7945 19.4731C12.9035 19.5016 13.0311 19.5387 13.0795 19.6589C13.2634 19.9934 13.129 20.4765 12.7883 20.6537C12.6758 20.7153 12.5457 20.7371 12.4192 20.7156C12.3544 20.697 12.2962 20.6605 12.2512 20.6103C12.2061 20.5601 12.1761 20.4983 12.1646 20.4319C12.146 20.3297 12.1708 20.2263 12.1956 20.1222C12.2327 19.9513 12.2352 19.7506 12.3671 19.6242H12.369ZM12.6806 19.6285C12.8044 19.8614 12.8329 20.1315 12.8583 20.3923C12.9556 20.287 13.0119 20.1476 13.0101 20.0033C13.0039 19.8794 12.9816 19.7444 12.8831 19.6595C12.8162 19.6453 12.7487 19.6304 12.6806 19.6285ZM12.3925 19.9104C12.3616 20.0095 12.3702 20.1179 12.3349 20.2164C12.2687 20.3564 12.3894 20.5657 12.5517 20.5447C12.5935 20.4979 12.6382 20.4539 12.6855 20.4127C12.7016 20.165 12.6669 19.9023 12.5325 19.6892C12.4687 19.7493 12.4124 19.8218 12.3932 19.9098L12.3925 19.9104Z" fill="#0A0203" stroke="#0A0203" stroke-width="0.015"/>
<path d="M6.3181 3.50596C6.34471 3.42581 6.3916 3.3539 6.45423 3.29724C6.51686 3.24058 6.59309 3.2011 6.6755 3.18263C6.86132 3.14856 7.03104 3.22351 7.18837 3.30341C7.3742 3.43783 7.5786 3.60073 7.64674 3.83611L7.65045 3.85965C7.44419 3.9092 7.26952 3.7593 7.09298 3.6924C6.9691 3.67072 6.85327 3.61807 6.73063 3.5933C6.59869 3.60754 6.48039 3.68497 6.34473 3.68497C6.33606 3.62613 6.31005 3.56604 6.32305 3.50658L6.3181 3.50596ZM26.3288 9.60345C26.4558 9.58487 26.5803 9.52293 26.7116 9.55575C26.8355 9.60779 26.9389 9.69079 26.9984 9.80352C26.8931 9.7583 26.7736 9.71247 26.6577 9.74591C26.5419 9.77936 26.41 9.8029 26.3307 9.89333C26.2687 9.94784 26.2297 10.0154 26.1647 10.0606C26.1213 10.0773 26.0718 10.0655 26.0265 10.0668C26.0222 9.95342 26.034 9.83139 26.1095 9.74096C26.1591 9.66291 26.2489 9.63256 26.3282 9.59664L26.3288 9.60345ZM25.2362 10.6688C25.3136 10.636 25.3786 10.5759 25.4629 10.5604C25.4381 10.6843 25.3607 10.7884 25.2461 10.833L24.7815 11.0374C24.6465 11.103 24.5461 11.222 24.4099 11.287C24.3151 11.3328 24.2104 11.349 24.1144 11.3985C24.0339 11.4332 23.9596 11.4834 23.8741 11.5069C23.8022 11.5255 23.7298 11.5057 23.6598 11.4902L24.1194 11.2579C24.2971 11.1836 24.4446 11.0566 24.6168 10.9717C24.8292 10.8838 25.0256 10.7611 25.2362 10.662V10.6688ZM22.5033 10.9395L22.5281 10.9302C22.6272 10.9736 22.7226 11.0244 22.818 11.0752L22.7976 11.0739L22.6117 11.0615C22.58 11.0156 22.5416 10.9747 22.4978 10.9401L22.5033 10.9395ZM22.8366 11.0857C22.9481 11.1476 23.0534 11.2344 23.1549 11.3167C23.0162 11.3044 22.8855 11.2207 22.8366 11.0857ZM8.45259 17.7506L8.47551 17.6967C8.55356 17.7029 8.6316 17.6936 8.70965 17.6862C8.67095 17.8063 8.62609 17.9243 8.57524 18.0398C8.51082 18.1922 8.50091 18.3601 8.45507 18.5168C8.43107 18.6016 8.41959 18.6894 8.421 18.7776C8.42348 18.8872 8.3665 18.9838 8.33429 19.0848C8.30827 18.9275 8.30827 18.7676 8.28969 18.6097C8.28126 18.498 8.28002 18.3858 8.28597 18.274C8.30889 18.1148 8.37083 17.9661 8.4272 17.8175L8.45383 17.7555L8.45259 17.7506ZM7.88273 19.7575C7.98989 19.6509 8.10324 19.5469 8.23766 19.4769C8.22836 19.5512 8.22403 19.633 8.17943 19.6974C8.11749 19.776 8.03697 19.8231 7.97627 19.8981L7.79044 20.113C7.70372 20.1842 7.60957 20.2468 7.53029 20.3279C7.42623 20.4332 7.29305 20.5026 7.18156 20.5992C7.12083 20.6589 7.05252 20.7104 6.97839 20.7522C6.80929 20.8433 6.68727 21.0019 6.51383 21.0855L7.04839 20.5138C7.2051 20.3855 7.34694 20.2412 7.49127 20.0988L7.88769 19.7581L7.88273 19.7575ZM4.79806 21.9366C4.99937 21.8325 5.23165 21.8337 5.45216 21.8331L5.51039 21.9613C5.42367 22.0146 5.32766 22.048 5.22546 22.0493C5.07866 22.0573 4.9492 22.1348 4.81665 22.1918C4.73922 22.2289 4.6525 22.2586 4.59552 22.328C4.53481 22.4042 4.50136 22.4996 4.43447 22.5721C4.35453 22.6619 4.26753 22.7451 4.17432 22.8211C4.18423 22.5498 4.33846 22.3026 4.5441 22.136C4.62896 22.071 4.69896 21.9843 4.79621 21.9378L4.79806 21.9366Z" fill="#F8B059" stroke="#F8B059" stroke-width="0.015"/>
<path d="M6.33979 3.68445C6.47606 3.68445 6.58755 3.60702 6.72568 3.59277C6.84832 3.61755 6.96415 3.67082 7.08803 3.69188C7.27014 3.75382 7.44482 3.90991 7.64551 3.85912L7.67462 4.07406C7.53835 4.17688 7.42685 4.3466 7.24103 4.34969C7.10848 4.35589 6.97035 4.35589 6.84585 4.30138L6.54853 4.16511C6.42031 4.03751 6.38748 3.8554 6.33545 3.68197L6.33979 3.68445ZM15.4699 9.45736C15.631 9.46356 15.784 9.39295 15.9456 9.39976C16.111 9.40781 16.2782 9.38551 16.4412 9.41586L17.1182 9.53046C17.3616 9.6147 17.5982 9.7392 17.7766 9.92998C17.841 10.0415 17.9315 10.1468 17.9407 10.2812C17.9736 10.4144 17.9271 10.5742 17.8057 10.6528C17.6942 10.7036 17.5679 10.7117 17.457 10.7656C17.3591 10.8164 17.2464 10.8275 17.1473 10.8746C16.9924 10.9551 16.8221 10.9985 16.6734 11.0895C16.4851 11.1607 16.3228 11.2753 16.1451 11.3744L15.5102 11.7603C15.3838 11.8179 15.2767 11.9078 15.1614 11.9846C14.98 12.1285 14.7855 12.2552 14.5804 12.363C14.4151 12.4671 14.2429 12.5736 14.0477 12.6096C13.953 12.6294 13.8619 12.6145 13.761 12.6318C13.6098 12.617 13.4537 12.5662 13.3546 12.4435C13.2493 12.2763 13.1428 12.0936 13.1515 11.8879C13.136 11.7343 13.206 11.5937 13.2382 11.4543C13.2877 11.3305 13.3274 11.1899 13.3905 11.0672C13.5033 10.9458 13.5299 10.7718 13.6383 10.6473L13.9276 10.2905C14.0564 10.1573 14.1617 9.99935 14.3091 9.88476C14.4188 9.81043 14.5383 9.76088 14.6517 9.68655C14.9069 9.56266 15.1887 9.51311 15.4668 9.47161L15.4699 9.45736ZM14.8418 9.91387L15.0177 10.397C15.0487 10.5983 15.0091 10.8058 15.0592 11.0065C14.954 11.0049 14.8495 10.9874 14.7495 10.9545C14.6888 10.9322 14.6257 10.9012 14.5606 10.9173C14.5222 10.9402 14.4888 10.9706 14.4535 10.9978C14.4894 11.1434 14.5897 11.266 14.6021 11.419C14.438 11.3447 14.254 11.3571 14.0806 11.3199C14.0347 11.3559 13.9784 11.4098 14.023 11.4711C14.0936 11.564 14.1976 11.6309 14.2336 11.7486C14.083 11.7733 13.896 11.6588 13.7752 11.7907C13.7306 11.9009 13.7294 12.0248 13.6761 12.1326C13.6637 12.1853 13.603 12.2528 13.655 12.2998C13.6885 12.3432 13.7492 12.3197 13.795 12.3283C13.8235 12.1772 13.8954 12.0403 13.9189 11.8898C14.0762 11.9034 14.2286 11.8886 14.3915 11.9022C14.4504 11.9084 14.5049 11.8402 14.4671 11.7833C14.4051 11.678 14.3153 11.5974 14.2528 11.4859C14.3729 11.5089 14.4962 11.5231 14.612 11.5689C14.6585 11.5919 14.7124 11.577 14.7545 11.5504C14.7731 11.5169 14.7607 11.4779 14.7545 11.4426C14.7371 11.3732 14.7359 11.3001 14.7124 11.232C14.6857 11.17 14.6343 11.1205 14.6318 11.0505C14.708 11.0629 14.7774 11.0951 14.8486 11.1236C14.9341 11.1347 15.0221 11.1273 15.1063 11.1484C15.1559 11.1632 15.2339 11.1391 15.2197 11.074L15.1528 10.7364C15.1961 10.5333 15.1342 10.3276 15.0908 10.1307C15.2121 10.1955 15.3259 10.2734 15.4303 10.3629L15.5975 10.5506C15.6378 10.5717 15.678 10.5432 15.7214 10.5258L15.7586 10.3264C15.869 10.4263 15.9415 10.5613 15.9636 10.7086C16.0088 10.7457 16.0627 10.7296 16.1122 10.7129C16.1494 10.6033 16.2522 10.537 16.2943 10.4305L16.4368 10.0836C16.5111 10.1554 16.5966 10.2186 16.6518 10.3078C16.6815 10.353 16.7001 10.4051 16.7286 10.4515C16.7763 10.4608 16.819 10.4329 16.845 10.3939C16.9094 10.301 16.9918 10.2205 17.0407 10.117C17.1609 10.1542 17.2736 10.2099 17.3919 10.2514C17.5103 10.293 17.6273 10.4175 17.7617 10.3549C17.7543 10.3165 17.758 10.2744 17.7345 10.2409C17.6738 10.2137 17.6032 10.2137 17.5462 10.1753C17.4074 10.0923 17.2526 10.0483 17.1039 9.98944C17.0438 9.97086 16.98 9.93555 16.9169 9.95847C16.8772 9.99749 16.8884 10.0588 16.8735 10.1084C16.8673 10.1684 16.8159 10.2062 16.7781 10.2484L16.5328 9.9436C16.5037 9.90458 16.4709 9.85069 16.4089 9.85688C16.3191 9.91511 16.3482 10.0427 16.2974 10.1276C16.2231 10.2558 16.1754 10.4187 16.0385 10.4943C15.9716 10.3654 15.8478 10.2589 15.8478 10.1022L15.8255 10.0489C15.7759 10.0489 15.7016 10.0223 15.6768 10.0861L15.6099 10.314L15.5709 10.3152C15.4523 10.1933 15.3187 10.0869 15.1732 9.99873C15.0896 9.95537 15.0202 9.89033 14.9477 9.83025C14.8883 9.81167 14.8629 9.86927 14.8375 9.91077L14.8418 9.91387ZM26.6577 9.75282C26.7736 9.71938 26.8919 9.76521 26.9984 9.81043C27.0213 9.83397 27.0337 9.87237 27.0442 9.89715L27.0523 9.94422C26.9749 10.0247 26.8987 10.1077 26.8541 10.2118C26.781 10.3667 26.584 10.3332 26.4577 10.4119C26.4032 10.4305 26.3462 10.4986 26.2892 10.4651L26.2799 10.4528L26.3245 10.3053L26.2316 10.2292L26.1771 10.223C26.13 10.1765 26.0612 10.2025 26.0036 10.1994L26.0265 10.0768C26.0718 10.0749 26.1207 10.0867 26.1647 10.0706C26.2291 10.0254 26.2737 9.95785 26.3307 9.90334C26.4162 9.81353 26.5438 9.78937 26.6577 9.75592V9.75282ZM25.9764 10.3555C26.0247 10.3307 26.0817 10.3369 26.1343 10.3388C26.1331 10.4168 26.0693 10.467 26.0253 10.5234C25.9324 10.6398 25.8159 10.734 25.6908 10.8126C25.212 10.9799 24.8441 11.3453 24.4192 11.6098C24.2433 11.7232 24.0475 11.8303 23.9497 12.0261L23.923 12.0044C23.8839 11.9002 23.8346 11.8002 23.7756 11.7058C23.7291 11.629 23.6592 11.5683 23.6208 11.4866L23.6666 11.4965C23.7366 11.5113 23.8091 11.5318 23.8809 11.5132C23.9664 11.4903 24.0407 11.4389 24.1212 11.4048C24.2172 11.3614 24.3213 11.3391 24.4167 11.2933C24.5517 11.2283 24.6521 11.1093 24.7883 11.0437L25.2529 10.8393C25.3089 10.8155 25.358 10.7781 25.3958 10.7305C25.4337 10.6829 25.4591 10.6266 25.4697 10.5667L25.4703 10.5649L25.9764 10.3543V10.3555Z" fill="#F6941E" stroke="#F6941E" stroke-width="0.015"/>
<path d="M22.6246 11.0612L22.8314 11.0754L22.8376 11.0859C22.8872 11.221 23.0235 11.3052 23.156 11.317C23.2303 11.325 23.2799 11.3876 23.3295 11.4371C23.4701 11.5691 23.6113 11.7072 23.6961 11.8831C23.7668 11.9859 23.8076 12.1036 23.8659 12.2126C23.8906 12.2622 23.8968 12.3179 23.9043 12.3737L23.9154 12.3749C23.9724 12.5471 24.0065 12.7299 23.973 12.9107C24.004 13.0631 23.978 13.2173 23.9297 13.3629C23.8652 13.5066 23.8281 13.6602 23.7612 13.8039C23.7581 13.6701 23.7674 13.5345 23.7383 13.4032L23.6379 12.9584C23.5778 12.6165 23.4255 12.3018 23.2849 11.9884C23.2396 11.872 23.1566 11.7778 23.099 11.6694C22.9727 11.444 22.8036 11.2464 22.6246 11.0624V11.0612ZM8.47472 17.6957C8.58312 17.661 8.69895 17.6895 8.81044 17.6771C9.0315 17.6859 9.24939 17.7326 9.45463 17.8152C9.57665 17.8666 9.70487 17.9057 9.82628 17.975C9.97246 18.0494 10.0914 18.1658 10.2177 18.2692C10.3026 18.3312 10.3559 18.4346 10.4308 18.5127L10.6303 18.7431C10.7504 18.9141 10.8384 19.1055 10.94 19.2913C11.0255 19.5186 11.08 19.7558 11.1258 19.9937C11.1357 20.0804 11.1308 20.1671 11.1252 20.2538C11.0372 20.2489 10.9443 20.252 10.8632 20.2105C10.7622 20.1585 10.6619 20.1039 10.551 20.0779C10.4519 20.0544 10.3614 20.0067 10.2661 19.9714C10.1707 19.9361 10.0697 19.9466 9.97246 19.928C9.91052 19.9045 9.85291 19.8494 9.78354 19.8308L9.56798 19.7707C9.52878 19.6382 9.46582 19.514 9.38216 19.404C9.22421 19.2572 9.03219 19.1562 8.83336 19.072C8.74169 19.0324 8.63205 19.0832 8.54843 19.0101C8.4741 18.9686 8.44313 19.072 8.39544 19.1154C8.36447 19.1463 8.34155 19.1123 8.3335 19.0782C8.36694 18.9772 8.42331 18.88 8.42021 18.771C8.4188 18.6829 8.43028 18.595 8.45428 18.5102C8.50074 18.3523 8.51622 18.185 8.57445 18.0333L8.70886 17.6802C8.63143 17.6876 8.55401 17.6957 8.47472 17.6907V17.6957Z" fill="#F6941E" stroke="#F6941E" stroke-width="0.015"/>
<path d="M8.46838 19.2687C8.53032 19.2068 8.62199 19.2161 8.70066 19.2266C8.87595 19.2638 9.0308 19.3604 9.17761 19.4595C9.27176 19.519 9.31883 19.6231 9.36467 19.7209C9.19123 19.7748 9.07602 19.9191 8.93108 20.0269C8.79791 20.1235 8.68146 20.2406 8.54952 20.3397C8.38104 20.4933 8.17478 20.5937 7.97347 20.6953L7.36954 21.0409C7.24752 21.1028 7.14655 21.1895 7.02639 21.2478C6.84242 21.3407 6.6566 21.4348 6.45777 21.4893C6.34194 21.5191 6.24283 21.5903 6.13134 21.6318C6.00436 21.6814 5.86189 21.7352 5.7888 21.8597L5.77022 21.8895L5.72438 21.9297L5.65625 21.843L5.74916 21.7191C5.8111 21.6461 5.88977 21.6064 5.95604 21.5445L6.25212 21.293C6.33884 21.2249 6.40945 21.1381 6.50299 21.0793C6.67642 20.9957 6.79844 20.8377 6.96754 20.746C7.03997 20.7016 7.108 20.6504 7.17071 20.5931C7.2822 20.4964 7.41538 20.4277 7.51944 20.3217C7.59811 20.2412 7.69288 20.178 7.77959 20.1068C7.85516 20.0461 7.91215 19.9668 7.97161 19.8919C8.03108 19.8169 8.11903 19.7699 8.17478 19.6912C8.21938 19.6268 8.22433 19.5456 8.233 19.4707L8.23424 19.4614C8.31561 19.4013 8.39223 19.335 8.46342 19.2632L8.46838 19.2687Z" fill="#F6941E" stroke="#F6941E" stroke-width="0.015"/>
<path d="M5.51025 21.9607C5.5502 21.9992 5.58237 22.0451 5.60502 22.0957L5.62608 22.1732C5.55423 22.2537 5.52264 22.359 5.48238 22.4581C5.42292 22.6049 5.27426 22.6761 5.16772 22.782C5.09463 22.8613 4.98623 22.8849 4.89642 22.9394C4.82209 22.9827 4.7459 23.0224 4.66104 23.0348C4.53716 23.0633 4.39903 23.01 4.26896 23.0471C4.21727 22.9817 4.18468 22.9032 4.1748 22.8204C4.26957 22.7461 4.3532 22.6594 4.43496 22.5714C4.50123 22.499 4.53406 22.4042 4.596 22.3274C4.65175 22.2593 4.73847 22.2283 4.81713 22.1911C4.94907 22.1335 5.07853 22.0561 5.22595 22.0486C5.32753 22.0474 5.42416 22.014 5.51087 21.9607H5.51025Z" fill="#F6941E" stroke="#F6941E" stroke-width="0.015"/>
<path d="M7.64681 3.83658L7.64309 3.80933C7.68645 3.9171 7.69264 4.03479 7.70689 4.14876C7.723 4.24477 7.67468 4.33583 7.61584 4.40644C7.5508 4.4467 7.47337 4.45971 7.4009 4.48077C7.35383 4.4436 7.30489 4.39529 7.23985 4.40024C7.17791 4.43245 7.19154 4.5074 7.1903 4.56501C7.0689 4.55386 6.95493 4.50307 6.84157 4.46962C6.70159 4.42378 6.62912 4.28256 6.55231 4.15991C6.64901 4.2104 6.74825 4.25588 6.84963 4.29618C6.97351 4.35007 7.11226 4.35069 7.24481 4.3445C7.43063 4.3414 7.54337 4.17106 7.6784 4.06886L7.64929 3.85392L7.64557 3.83039L7.64681 3.83658ZM27.0449 9.89567L27.0728 9.93902C27.0381 10.058 27.0109 10.1893 26.926 10.2816C26.8331 10.4098 26.6813 10.4723 26.542 10.5324C26.4447 10.5262 26.3425 10.5176 26.2527 10.4785L26.2676 10.4154L26.2818 10.45L26.2911 10.4624C26.3487 10.4953 26.4057 10.4277 26.4596 10.4092C26.5859 10.3311 26.7817 10.3639 26.856 10.2091C26.9006 10.105 26.9762 10.0214 27.0542 9.9415L27.0462 9.89443L27.0449 9.89567ZM24.4199 11.609C24.8442 11.3451 25.2127 10.9784 25.6915 10.8118C25.5286 11.0193 25.3013 11.1562 25.082 11.2949C24.8689 11.4033 24.7079 11.5904 24.4979 11.7037C24.2978 11.809 24.1263 11.9657 23.9528 12.1002L23.9231 12.0041L23.9497 12.0258C24.0488 11.8295 24.2439 11.7161 24.4192 11.6096L24.4199 11.609ZM9.36444 19.7202L9.37682 19.7152C9.39912 19.8608 9.47221 20.0422 9.35453 20.1643C9.19162 20.2801 9.00332 20.3532 8.82927 20.4492C8.72397 20.5136 8.60752 20.5588 8.4985 20.6164C8.41426 20.6598 8.33002 20.7075 8.23959 20.7378C7.98377 20.8159 7.78246 21.0054 7.53655 21.1052L7.11535 21.3058C6.68176 21.4873 6.26428 21.7357 5.81087 21.8819L5.79601 21.8571C5.8691 21.732 6.01094 21.6794 6.13854 21.6292C6.25003 21.5871 6.34914 21.5164 6.46497 21.4867C6.66318 21.4322 6.849 21.3381 7.03359 21.239C7.15437 21.1807 7.25472 21.0878 7.37674 21.0321C7.58858 20.9361 7.77812 20.7992 7.98067 20.6864C8.18198 20.5849 8.38948 20.4851 8.55672 20.3309L8.93828 20.0181C9.07703 19.9109 9.18605 19.766 9.37187 19.7121L9.36444 19.7202ZM9.55522 19.7697C9.62521 19.7957 9.69892 19.8106 9.77077 19.8298C9.84262 19.849 9.8928 19.9041 9.95969 19.927C10.0569 19.9469 10.1591 19.9363 10.2533 19.9704C10.3474 20.0045 10.4391 20.0534 10.5382 20.0769C10.6497 20.1029 10.7488 20.1575 10.8504 20.2095C10.9309 20.251 11.0238 20.2467 11.1124 20.2528C11.1186 20.1661 11.1229 20.0794 11.113 19.9927C11.1626 20.1166 11.1236 20.2361 11.1149 20.3643C11.0975 20.5669 11.0653 20.7719 10.9861 20.9602C10.9501 21.0531 10.8708 21.1132 10.7971 21.1733C10.6237 21.1609 10.4478 21.1299 10.2892 21.0519C10.0587 20.9376 9.81895 20.8429 9.57256 20.7688C9.39789 20.6982 9.21702 20.6301 9.07455 20.5025C9.18109 20.4405 9.30064 20.4108 9.39355 20.3303C9.44806 20.2807 9.52858 20.2473 9.54593 20.168C9.58928 20.041 9.57318 19.9054 9.55522 19.7759V19.7697ZM5.60585 22.0956C5.62071 22.116 5.63372 22.1377 5.64549 22.1606C5.62071 22.427 5.49064 22.6704 5.33764 22.8841C5.29428 22.9374 5.23234 22.9683 5.17536 23.0049C5.05147 23.0767 4.94617 23.1876 4.79999 23.2143C4.61293 23.2452 4.38932 23.2105 4.26978 23.047C4.39366 23.0098 4.53179 23.0637 4.66186 23.0346C4.74672 23.0222 4.82415 22.982 4.89724 22.9392C4.98644 22.8847 5.09545 22.8612 5.16854 22.7819C5.27384 22.6754 5.42374 22.6041 5.4832 22.458C5.52285 22.3588 5.55444 22.2535 5.62691 22.173L5.60585 22.0956Z" fill="#7D4B0F" stroke="#7D4B0F" stroke-width="0.015"/>
<path opacity="0.8" d="M7.50736 4.87423C7.43303 4.85379 7.53028 4.77946 7.53585 4.85441L7.52718 4.87299L7.50736 4.87423Z" fill="#0C0606" stroke="#0C0606" stroke-width="0.015"/>
<path d="M7.50659 4.87429L7.52641 4.87305L7.82187 5.19514C7.8962 5.24903 7.94823 5.32646 7.99159 5.40698L8.16131 5.40079C8.27776 5.40079 8.3874 5.35433 8.49394 5.30973C8.61865 5.25603 8.73705 5.18872 8.847 5.10904C8.95973 5.33203 8.99566 5.5798 9.07371 5.81517L9.13565 6.11373C9.16042 6.17567 9.19511 6.21903 9.2236 6.27168C9.31032 6.27663 9.41872 6.2692 9.46394 6.18186C9.53455 6.05798 9.62374 5.95888 9.68383 5.83499C9.74391 5.71111 9.82877 5.60209 9.89071 5.47945C10.0245 5.48379 10.105 5.35557 10.1961 5.28124L10.2184 5.3692C10.2667 5.63926 10.2072 5.91552 10.2469 6.18682C10.2692 6.32495 10.2419 6.46865 10.2865 6.60306L10.7833 7.15248C10.8663 7.26026 10.9815 7.33831 11.0589 7.4498L11.4535 7.9379C11.5427 8.08903 11.6622 8.21787 11.7706 8.35476C11.9032 8.4805 12.0351 8.6112 12.1299 8.76977C12.1002 8.84162 12.0184 8.87507 11.9533 8.91223C11.9261 8.84224 11.8914 8.7741 11.8394 8.71897L11.0936 7.83941C10.9976 7.71553 10.9276 7.58235 10.8167 7.47705L10.5516 7.16921C10.4599 7.0701 10.3485 6.99144 10.2679 6.8818C10.2109 6.80313 10.1279 6.74553 10.0821 6.66253L10.0666 6.46617C10.0431 6.34043 10.0728 6.21345 10.071 6.08709L10.0809 5.58227L10.0189 5.54387C9.99105 5.56741 9.95699 5.58537 9.93717 5.61696L9.31775 6.78951C9.2013 6.65447 9.08857 6.51077 9.02973 6.33857C8.99752 6.24876 8.96779 6.15275 8.94487 6.06479C8.91576 5.89136 8.79931 5.74146 8.8024 5.55997C8.80488 5.48564 8.76524 5.42123 8.72807 5.36052L8.65374 5.363L8.57446 5.46459C8.48774 5.39335 8.3812 5.44229 8.28705 5.46768C8.15388 5.50113 8.05291 5.60395 7.92346 5.65351C7.86151 5.52157 7.76551 5.40946 7.70666 5.28186L7.51712 4.88543L7.50659 4.87429ZM16.6386 8.6112C16.7885 8.64217 16.9347 8.68986 17.0808 8.73508C17.2295 8.76605 17.372 8.81932 17.5058 8.89241C17.5956 8.95745 17.6941 9.00886 17.7907 9.06151C17.9722 9.15442 18.1177 9.30927 18.2831 9.42201L18.5495 9.7057C18.6932 9.8333 18.8003 9.99496 18.9174 10.1393C19.0989 10.361 19.2556 10.602 19.3943 10.8516C19.5232 11.1093 19.6632 11.3626 19.7561 11.637L19.8193 11.6203C19.8162 11.5088 19.8378 11.3874 19.7759 11.2883L19.5232 10.7537C19.3405 10.4093 19.0945 10.1046 18.8394 9.81224L18.2243 9.19282C18.088 9.05222 17.8978 8.98656 17.7535 8.85524C17.8848 8.88374 18.0013 8.94072 18.1376 8.97107C18.306 9.00948 18.4305 9.14079 18.5848 9.21884C18.7458 9.29565 18.8555 9.44802 19.0153 9.52607C19.1028 9.57028 19.1858 9.62298 19.263 9.6834C19.3702 9.76702 19.4972 9.82586 19.5901 9.92745C19.6539 9.99063 19.6985 10.073 19.7709 10.1257C19.8762 10.1851 19.9939 10.2217 20.1135 10.2452L20.5557 10.7445C20.6796 10.8436 20.7682 10.9767 20.884 11.0839C20.9615 11.1731 21.0699 11.2288 21.1429 11.323C21.2866 11.5063 21.3684 11.7287 21.5109 11.9127C21.6917 12.2038 21.7741 12.5414 21.8924 12.8604C22.1129 13.2853 22.1978 13.7622 22.3421 14.215C22.3564 14.3054 22.3811 14.3934 22.4028 14.4826C22.4241 14.6384 22.4326 14.7956 22.4282 14.9527C22.4449 15.1107 22.4741 15.2624 22.4685 15.4297L22.4412 15.7351L22.409 15.7338C22.3977 15.616 22.3785 15.4991 22.3514 15.3838C22.3143 15.2414 22.339 15.084 22.2659 14.9503C22.256 14.7917 22.1817 14.6492 22.1452 14.4968C22.1173 14.2943 22.0399 14.1035 21.9767 13.9103C21.9147 13.743 21.8714 13.5708 21.7698 13.424C21.6874 13.2704 21.5623 13.1478 21.4712 13.0003L21.3381 12.8052C21.2247 12.6504 21.076 12.5284 20.9466 12.3884C20.7992 12.2459 20.6146 12.1499 20.4709 12.0043C20.3798 11.93 20.2683 11.8897 20.1661 11.8352C19.9958 11.7423 19.8131 11.6773 19.6303 11.6135C19.5312 11.5794 19.4619 11.4896 19.3578 11.4648C19.2042 11.4246 19.0605 11.5268 18.9056 11.5144C18.7446 11.5082 18.5922 11.5683 18.4318 11.5639C18.3265 11.5689 18.2286 11.6172 18.1252 11.6383C18.0273 11.6568 17.9418 11.7126 17.8502 11.7485C17.5993 11.829 17.367 11.9573 17.1149 12.0316C16.9539 12.0582 16.8176 12.1592 16.6596 12.1951C16.5562 12.223 16.4639 12.28 16.3636 12.3153C16.2078 12.3691 16.0639 12.4526 15.9399 12.5612C15.8674 12.6522 15.7491 12.6603 15.6519 12.708C15.5546 12.7557 15.4431 12.7668 15.3471 12.8195L14.8714 13.0561C14.7327 13.1478 14.5834 13.2233 14.4595 13.3361C14.3808 13.4017 14.2737 13.4383 14.2192 13.525C14.0581 13.7325 13.8128 13.8458 13.6382 14.0391L13.378 13.6402C13.2132 13.4234 13.002 13.2518 12.7958 13.0778C12.5988 12.8783 12.3479 12.7433 12.094 12.633C11.8375 12.4844 11.552 12.4039 11.2726 12.3109C11.1289 12.3017 10.9877 12.2614 10.8421 12.275C10.66 12.2626 10.4816 12.3122 10.2995 12.3023C10.1973 12.3047 10.0964 12.3258 9.99415 12.327C9.85974 12.332 9.73833 12.3933 9.61135 12.4323L9.64666 12.3865C9.80771 12.3432 9.96875 12.2948 10.1422 12.2917C10.2215 12.2905 10.3119 12.2756 10.3546 12.1988L10.8613 11.4419C10.9623 11.2957 11.1258 11.2146 11.233 11.0808C11.3098 10.9842 11.4399 10.9612 11.5266 10.8751C11.6232 10.7804 11.765 10.7513 11.8611 10.6602C11.9571 10.5692 12.084 10.4992 12.1955 10.4205C12.3238 10.3102 12.4637 10.2161 12.5982 10.1139C12.8211 9.98196 13.0677 9.894 13.2876 9.75587L13.6815 9.53102C13.8779 9.40714 14.1151 9.35263 14.3028 9.22441C14.4421 9.13522 14.6001 9.07885 14.7444 9.00019C14.8887 8.92152 15.0504 8.90356 15.2071 8.87197C15.3638 8.84038 15.5168 8.82613 15.6729 8.81003C15.8414 8.79454 15.9932 8.70844 16.1598 8.68614L16.6367 8.61553L16.6386 8.6112ZM15.8253 9.27397C15.72 9.27397 15.6209 9.31237 15.5174 9.32166C15.2883 9.34644 15.0541 9.37245 14.8342 9.44864C14.5636 9.57252 14.2563 9.66729 14.0538 9.90391C13.9497 9.99187 13.8841 10.1133 13.7893 10.2099C13.6766 10.3338 13.6059 10.4793 13.4982 10.6014C13.4567 10.807 13.3161 10.973 13.2318 11.1539C13.1463 11.3224 13.0485 11.4946 13.0348 11.6884C13.02 11.7919 13.0051 11.8972 13.0225 12.0019C13.0423 12.1245 13.0441 12.2583 13.1247 12.3599C13.1971 12.4546 13.2362 12.5791 13.3427 12.6448C13.5366 12.8071 13.8042 12.7984 14.0401 12.7724C14.1516 12.76 14.2532 12.703 14.3622 12.6795L15.051 12.275L15.3855 12.0118L15.8117 11.7566C15.9665 11.6513 16.1356 11.5707 16.2948 11.4747C16.5426 11.3112 16.7996 11.157 17.0833 11.0647L17.8241 10.8126C17.9932 10.7798 18.0843 10.602 18.1252 10.4409C18.1215 10.317 18.0932 10.195 18.042 10.082C17.9907 9.96911 17.9175 9.8675 17.8266 9.78312C17.678 9.5973 17.4426 9.52793 17.2475 9.40776L16.6739 9.31733C16.5104 9.27583 16.3406 9.28326 16.1784 9.24052C16.0607 9.25654 15.9422 9.26626 15.8234 9.26963L15.8253 9.27397Z" fill="#99987D" stroke="#99987D" stroke-width="0.015"/>
<path d="M10.568 12.4156C10.8046 12.3877 11.0512 12.3871 11.2754 12.4794C11.4135 12.5389 11.564 12.5581 11.709 12.6157C11.8905 12.6888 12.0806 12.742 12.2522 12.8405C12.3947 12.9334 12.552 13.009 12.6672 13.1391C12.9559 13.3974 13.2619 13.6544 13.4477 14.0032C13.4755 14.0614 13.5319 14.1109 13.5263 14.1809C13.5375 14.2887 13.4929 14.3884 13.4786 14.4931C13.4632 14.7012 13.3894 14.8995 13.3634 15.1125L13.3349 15.6898C13.3312 15.797 13.3139 15.9029 13.3064 16.0094C13.3003 16.0813 13.3356 16.1457 13.3585 16.2126C13.3894 16.3167 13.3721 16.4282 13.3894 16.5347L13.5047 17.2991C13.514 17.4081 13.5499 17.5134 13.553 17.6236C13.4415 17.4626 13.3548 17.283 13.2148 17.1436C13.0661 17.016 12.9422 16.8611 12.7967 16.7304C12.5644 16.5446 12.321 16.3712 12.0546 16.2349C11.8366 16.1593 11.657 16.0039 11.4352 15.9252C11.3206 15.8942 11.1998 15.8979 11.0852 15.8633C10.923 15.8211 10.7539 15.8509 10.5897 15.8249C10.3345 15.7877 10.0781 15.8372 9.82473 15.8682C9.88667 15.6973 9.83712 15.5152 9.84703 15.338C9.8619 15.1646 9.76403 15.0079 9.76403 14.835C9.76217 14.6814 9.71262 14.5359 9.68227 14.3878C9.65749 14.1506 9.6129 13.914 9.62033 13.6755C9.62405 13.5993 9.65625 13.5299 9.68475 13.4606C9.7312 13.3515 9.74669 13.2283 9.80863 13.1248C9.88606 12.991 9.93251 12.8418 10.013 12.7111L10.1598 12.4608L10.0626 12.4546L10.0347 12.4534L10.5711 12.4113L10.568 12.4156ZM9.85571 16.4065C9.93313 16.373 10.0137 16.417 10.0911 16.4294C10.0056 16.4406 9.90959 16.4319 9.83836 16.4895C9.7566 16.5539 9.66802 16.6134 9.60299 16.697L9.52246 16.635C9.59679 16.5112 9.73182 16.4616 9.85571 16.4133V16.4065ZM11.2989 17.6267C11.3364 17.5505 11.398 17.4889 11.4742 17.4514C11.6531 17.4193 11.8375 17.4579 11.9883 17.5592C12.0788 17.6174 12.1432 17.7054 12.2095 17.7884C12.0856 17.6558 11.901 17.5902 11.7245 17.5512C11.5808 17.5697 11.4364 17.5821 11.2983 17.6267H11.2989ZM12.6864 19.6212C12.7484 19.6231 12.8227 19.638 12.889 19.6522C12.9881 19.7364 13.0097 19.8721 13.0159 19.996C13.017 20.1403 12.9627 20.2795 12.8642 20.385C12.8394 20.1248 12.8165 19.8541 12.6864 19.6212Z" fill="#99987D" stroke="#99987D" stroke-width="0.015"/>
<path d="M8.48246 5.23536C8.59395 5.15794 8.68439 5.05202 8.80889 4.99255L8.84853 5.109C8.74013 5.192 8.61935 5.25766 8.49547 5.30969C8.39017 5.35305 8.27991 5.40075 8.16284 5.40075C8.25947 5.32642 8.37778 5.29359 8.4837 5.23536H8.48246ZM9.89967 5.47941C9.99259 5.33571 10.0929 5.19572 10.2094 5.07555L10.2218 5.36978L10.1995 5.28182C10.1084 5.36048 10.0279 5.48375 9.8941 5.48003L9.89967 5.47941ZM15.5648 8.57647C15.7073 8.57337 15.8479 8.54054 15.9904 8.53311C16.1142 8.54922 16.2381 8.49595 16.3589 8.53683L16.6395 8.61116C16.4828 8.64956 16.3217 8.65947 16.1625 8.68177C15.9953 8.70469 15.8442 8.79079 15.6757 8.80565L15.2099 8.86759C15.0532 8.89856 14.8903 8.91838 14.7472 8.99581L14.3055 9.22004C14.1117 9.34826 13.8806 9.40153 13.6843 9.52665C13.5579 9.61027 13.4229 9.6784 13.2903 9.75149C13.0704 9.88962 12.8245 9.97758 12.6009 10.1095L12.1983 10.4161C12.0868 10.4954 11.9605 10.5561 11.8638 10.6558C11.7672 10.7556 11.6266 10.776 11.5293 10.8708C11.4426 10.9575 11.3126 10.9798 11.2357 11.0764C11.1218 11.2102 10.9582 11.2914 10.8641 11.4375L10.3574 12.1945C10.3141 12.2713 10.2242 12.2861 10.145 12.2874C9.97772 12.2905 9.81543 12.3382 9.64943 12.3821C9.7545 12.1891 9.88127 12.0087 10.0273 11.8445L10.3636 11.5131C10.5705 11.3229 10.7873 11.1415 10.9682 10.9247C11.1001 10.8101 11.2246 10.6849 11.3726 10.5914C11.4148 10.558 11.4705 10.5772 11.5194 10.5747L11.5529 10.4508L12.2578 10.0742L13.2718 9.52603C13.4997 9.3817 13.7673 9.30799 14.0014 9.18721C14.051 9.10978 14.1439 9.08996 14.2157 9.04227C14.3483 8.95865 14.4994 8.91405 14.6419 8.85273C14.7868 8.83167 14.9064 8.73999 15.0488 8.70902C15.2241 8.67805 15.3858 8.587 15.5661 8.58204L15.5648 8.57647ZM17.3846 8.64894C17.5271 8.63655 17.6708 8.65513 17.8089 8.68611L18.2103 8.8583L18.7102 9.15996C18.8415 9.2219 18.9561 9.32534 19.0942 9.37799C19.311 9.51018 19.5111 9.66803 19.6901 9.84812L19.8759 10.0092C19.9502 10.0897 20.0506 10.1454 20.1113 10.2384C19.9916 10.2166 19.876 10.1763 19.7688 10.1188C19.6957 10.0649 19.6449 9.98253 19.5879 9.92059C19.495 9.81839 19.368 9.75955 19.2608 9.67654C19.1836 9.61606 19.1007 9.56336 19.0131 9.51921C18.852 9.44117 18.7436 9.29003 18.5826 9.21199C18.4277 9.14013 18.3039 9.00882 18.1354 8.96422C18.0115 8.93449 17.8827 8.8775 17.7513 8.84839C17.6745 8.82114 17.6151 8.76043 17.542 8.72699C17.48 8.69973 17.4231 8.68673 17.3791 8.64027L17.3846 8.64894Z" fill="#B3B39F" stroke="#B3B39F" stroke-width="0.015"/>
<path d="M10.0604 12.4591L10.1577 12.4653L10.0109 12.7156C9.92912 12.8456 9.88328 12.9961 9.80648 13.1293C9.74577 13.2328 9.73586 13.356 9.68879 13.465C9.6603 13.5344 9.62809 13.6038 9.62437 13.68C9.61012 13.9191 9.6541 14.1569 9.68631 14.3923C9.71728 14.541 9.76683 14.6865 9.76807 14.8395C9.76869 15.0129 9.86718 15.1678 9.85108 15.3425C9.84178 15.519 9.89134 15.7017 9.82877 15.8727L9.82568 15.8838L9.73896 15.9148C9.68238 15.9147 9.62628 15.9252 9.57358 15.9458C9.56738 15.7271 9.47261 15.5233 9.46332 15.3053C9.43607 15.122 9.33758 14.9584 9.319 14.7726C9.28803 14.4964 9.21989 14.2151 9.23476 13.9414C9.27812 13.6211 9.2967 13.2959 9.38466 12.9838C9.42368 12.8661 9.47137 12.7496 9.52279 12.6369C9.5519 12.5737 9.6318 12.5725 9.68879 12.5502L10.0666 12.4585L10.0604 12.4591Z" fill="#B3B39F" stroke="#B3B39F" stroke-width="0.015"/>
<path d="M8.27668 5.46953C8.37083 5.44476 8.47675 5.3952 8.56409 5.46644C8.38755 5.60271 8.16147 5.65226 7.98308 5.77986L7.91309 5.65598C8.03697 5.61262 8.14351 5.50918 8.27668 5.47015V5.46953ZM9.01812 6.34043C9.07758 6.512 9.18907 6.65013 9.30614 6.79136C9.26225 6.84757 9.21531 6.90133 9.16554 6.9524L9.01812 6.34043ZM19.0421 11.6599C19.2279 11.6135 19.4106 11.6314 19.5859 11.6822C19.7098 11.759 19.8683 11.7826 20.0028 11.8507C20.17 11.9151 20.2858 12.0632 20.4469 12.1394C20.5163 12.1703 20.5677 12.2286 20.6203 12.2831C20.7369 12.4059 20.8626 12.5198 20.9963 12.6237C21.0601 12.6733 21.0991 12.7451 21.145 12.8108L21.3927 13.1787C21.4838 13.31 21.5928 13.4284 21.6653 13.5727C21.7272 13.6755 21.7495 13.7895 21.7978 13.896C21.8845 14.0849 21.9366 14.2875 21.9886 14.4882C22.035 14.674 22.1224 14.8363 22.1373 15.024C22.1484 15.159 22.2097 15.2841 22.2227 15.4185C22.1385 15.3411 22.0753 15.2451 22.032 15.1386C21.9867 15.0258 21.8895 14.9484 21.8263 14.8462L21.7817 14.8202C21.7396 14.7248 21.6529 14.6628 21.5971 14.5774C21.4856 14.4052 21.3165 14.2825 21.1635 14.1586C21.0855 14.0843 20.9938 14.0267 20.9059 13.9648C20.5181 13.6513 20.0548 13.4383 19.5698 13.333C19.4657 13.3119 19.3672 13.2667 19.2613 13.2537C18.8277 13.2091 18.3941 13.2209 17.9556 13.2766C17.771 13.2908 17.6211 13.4153 17.4446 13.4599C17.2544 13.551 17.0729 13.6743 16.8778 13.7436L16.1705 14.1339C16.0466 14.1946 15.9369 14.2807 15.8112 14.3364C15.7449 14.3653 15.6809 14.3993 15.6198 14.438L15.0871 14.7589L14.3847 15.177C14.2837 15.2513 14.171 15.3089 14.0799 15.3968L13.795 15.657C13.6978 15.7623 13.5627 15.8304 13.4853 15.9667C13.4401 15.6737 13.4574 15.3739 13.5206 15.0853L13.6959 14.2503C13.7024 14.2295 13.7137 14.2104 13.7287 14.1946C13.9022 13.992 14.127 13.8427 14.2967 13.6371C14.3312 13.5948 14.3678 13.5543 14.4064 13.5157C14.5117 13.5052 14.5872 13.4265 14.6727 13.3732C14.9824 13.1701 15.2971 12.988 15.6415 12.8641L16.1141 12.633C16.3724 12.5005 16.6561 12.4274 16.91 12.2862C17.0191 12.2527 17.1169 12.1945 17.2197 12.1449C17.4415 12.0706 17.6657 12.0025 17.8745 11.8928C18.0776 11.8173 18.2833 11.7411 18.4939 11.7219C18.671 11.6785 18.8562 11.7144 19.0328 11.6692L19.0421 11.6599Z" fill="#4E4D3F" stroke="#4E4D3F" stroke-width="0.015"/>
<path d="M16.6634 12.1901C16.822 12.1542 16.957 12.0539 17.1187 12.0266C17.0214 12.1301 16.8808 12.1647 16.7557 12.2205L16.4491 12.3407C16.28 12.4106 16.1233 12.5141 15.9443 12.5574C16.0683 12.4489 16.2122 12.3654 16.3679 12.3115C16.4683 12.2756 16.5538 12.2186 16.664 12.1914L16.6634 12.1901ZM13.8853 18.6097C13.9473 18.6717 13.9572 18.7571 13.9968 18.829L14.1907 19.1833C14.327 19.3865 14.4385 19.6094 14.5624 19.82C14.6144 19.903 14.615 20.0046 14.6466 20.0951C14.6813 20.2028 14.7358 20.3106 14.7296 20.4271C14.6379 20.6284 14.397 20.647 14.2074 20.6717C14.0712 20.681 13.9306 20.7238 13.7961 20.6804C13.8469 20.4351 13.8395 20.1824 13.8934 19.9384C13.9244 19.672 13.9244 19.4026 13.9244 19.1344C13.9429 18.9578 13.912 18.7832 13.8903 18.6091L13.8853 18.6097Z" fill="#4E4D3F" stroke="#4E4D3F" stroke-width="0.015"/>
<path opacity="0.28" d="M20.2374 5.61757C20.2789 5.60518 20.2932 5.67455 20.2523 5.68384C20.2089 5.69747 20.1953 5.62562 20.2374 5.61757Z" fill="#040202" stroke="#040202" stroke-width="0.015"/>
<path d="M12.3711 8.79816C12.3946 8.77524 12.433 8.77338 12.4578 8.77586L12.5011 8.86877C12.3382 9.00008 12.14 9.07317 11.961 9.17847C11.9226 9.17228 11.9078 9.13635 11.8991 9.10538C12.0725 9.02486 12.2249 8.91089 12.3779 8.79878L12.3711 8.79816ZM12.8666 9.14627C12.9728 9.1017 13.0726 9.04317 13.1633 8.97221C13.3231 8.96354 13.4817 8.99079 13.6402 9.01185C13.7455 9.00814 13.8539 9.00938 13.9574 8.98088L13.9283 9.02114L13.5981 9.15989C13.5377 9.17421 13.4783 9.19263 13.4204 9.21502L13.4104 9.20883L13.3485 9.1729C13.268 9.19768 13.1875 9.22617 13.1038 9.23856C13.0419 9.24971 12.9775 9.20759 12.9192 9.17971L12.5042 9.4696C12.3587 9.5718 12.1983 9.65171 12.0707 9.77001C11.9418 9.86788 11.8142 9.993 11.6445 10.0011L11.6569 9.93663C11.6903 9.87655 11.7572 9.84992 11.8155 9.82204C11.9616 9.76382 12.0793 9.6548 12.2199 9.58667C12.3438 9.50429 12.4782 9.43615 12.5934 9.34014C12.6814 9.27015 12.7879 9.22617 12.8697 9.15432L12.8666 9.14627ZM21.2101 10.6731C21.3265 10.6501 21.4459 10.6455 21.5638 10.6595L22.0872 10.8131C22.1906 10.836 22.2575 10.9277 22.3194 11.0076H22.1912C22.1367 10.9382 22.0475 10.9506 21.9707 10.9543C21.9212 10.8255 21.7341 10.8261 21.661 10.9314C21.5185 10.9221 21.3761 10.9104 21.2349 10.9289C21.1153 10.9438 20.9858 10.9054 20.9214 10.7964C21.002 10.7735 21.085 10.7629 21.1661 10.7437L21.2095 10.6731H21.2101ZM9.60664 16.0855L9.86679 16.0199C9.88537 16.0471 9.92068 16.0713 9.91386 16.1085L9.71689 16.3036C9.62493 16.3521 9.53906 16.4113 9.46107 16.4801C9.39192 16.524 9.33282 16.5821 9.28764 16.6504C9.20464 16.7731 9.08137 16.8635 9.01262 16.9961C8.92404 17.1615 8.81441 17.3306 8.82865 17.5288L8.95687 17.5672L8.88254 17.5591C8.77229 17.5343 8.66079 17.5635 8.55054 17.5696C8.62301 17.416 8.75185 17.2946 8.80945 17.1342C8.90484 17.045 8.94696 16.9174 9.02872 16.8164C9.1972 16.5687 9.37993 16.3395 9.6023 16.1475L9.60849 16.0868L9.60664 16.0855Z" fill="#D6D6C7" stroke="#D6D6C7" stroke-width="0.015"/>
<path d="M12.501 8.86938C12.563 8.93133 12.5977 9.03043 12.6596 9.10352C12.6138 9.1221 12.5704 9.14688 12.5326 9.18033C12.4056 9.28811 12.2644 9.37668 12.1238 9.46278C12.0891 9.355 12.021 9.26643 11.9411 9.189L11.9615 9.17909C12.1474 9.07379 12.3332 9.00132 12.5017 8.86938H12.501ZM12.5147 9.46897L12.9297 9.17909C12.9879 9.20573 13.0535 9.24908 13.1143 9.23793C13.1979 9.22555 13.2778 9.19643 13.3589 9.17228L13.4209 9.2082L13.0083 9.43986C12.9464 9.4857 12.9074 9.54764 12.8399 9.57613C12.7407 9.61701 12.654 9.67958 12.5562 9.72355C12.4298 9.78054 12.3363 9.89451 12.2031 9.93601L11.619 10.2333C11.6314 10.1342 11.6153 10.0264 11.6667 9.93601L11.6543 10.0004C11.8246 9.99238 11.9516 9.86726 12.0805 9.76939C12.2149 9.64551 12.3753 9.57118 12.514 9.46897H12.5147ZM20.8866 10.8422C20.8662 10.8137 20.9052 10.8081 20.9226 10.7958C20.987 10.9048 21.1164 10.9444 21.236 10.9283C21.3784 10.9097 21.5209 10.9221 21.6621 10.9308C21.6307 11.0091 21.6161 11.0931 21.6193 11.1774C21.6225 11.2617 21.6434 11.3444 21.6807 11.4201C21.7408 11.5415 21.8201 11.6728 21.9545 11.7187C22.0641 11.7527 22.1775 11.7001 22.2673 11.64C22.3268 11.5967 22.3924 11.5347 22.3862 11.453C22.3949 11.2795 22.2623 11.1432 22.1924 11.007H22.3206C22.463 11.0763 22.5454 11.2176 22.6581 11.3167C22.8019 11.4672 22.8898 11.6586 23.0112 11.8246C23.1246 12.0271 23.2144 12.2415 23.3067 12.4539C23.3919 12.6449 23.4535 12.8457 23.49 13.0517C23.5779 13.336 23.6103 13.6346 23.5854 13.9312C23.5266 13.9479 23.5377 14.0068 23.5451 14.0539L23.6319 14.0997L23.5408 14.332C23.4566 14.4187 23.3457 14.4695 23.2478 14.5364C23.0595 14.6603 22.8372 14.7699 22.6036 14.7433C22.6142 14.5661 22.5696 14.3939 22.5027 14.2316C22.4302 14.0563 22.4122 13.8637 22.3373 13.6896C22.2369 13.4388 22.201 13.1644 22.0747 12.9241L21.8765 12.379C21.7996 12.2117 21.765 12.024 21.6659 11.8667C21.589 11.7515 21.5252 11.627 21.4367 11.5198L21.4317 11.4121L21.2459 11.1841L20.8817 10.8348L20.8866 10.8422ZM22.3689 12.1182L22.315 12.2421C22.2984 12.3561 22.3069 12.4723 22.3398 12.5828C22.3621 12.745 22.4637 12.8801 22.5597 13.0064C22.6352 13.1043 22.7703 13.0975 22.8805 13.0932C22.9747 13.0188 23.0663 12.934 23.114 12.8206C23.0725 12.6596 22.9902 12.5146 22.9096 12.3709C22.8538 12.2764 22.7638 12.207 22.6581 12.177C22.5962 12.0779 22.4723 12.0655 22.3701 12.117L22.3689 12.1182ZM22.9468 13.5472C22.8873 13.567 22.8464 13.6234 22.8105 13.6735C22.7158 13.8371 22.6848 14.0433 22.7535 14.223C22.7845 14.3506 22.8774 14.5005 23.0323 14.4813C23.145 14.4905 23.2404 14.4193 23.3271 14.3561C23.4299 14.2756 23.4225 14.13 23.4126 14.0124C23.3878 13.9164 23.4293 13.7956 23.3395 13.7256C23.2249 13.6389 23.0917 13.5397 22.9462 13.5472H22.9468ZM9.85739 16.0081C9.96021 16.0019 10.0606 15.9759 10.1628 15.9635C10.3114 15.9511 10.4626 15.9586 10.6124 15.9592C10.7983 15.9666 10.9921 16.0087 11.1842 16.0174C11.3502 16.0316 11.5013 16.1103 11.6413 16.2032C11.8618 16.3395 12.1096 16.4237 12.3195 16.5767C12.5008 16.6935 12.6674 16.8316 12.8157 16.988C12.9396 17.1429 13.1211 17.2544 13.2276 17.4303C13.3416 17.5752 13.4091 17.7487 13.4964 17.9097L13.6246 18.2491C13.6866 18.4312 13.7299 18.6171 13.7436 18.8085C13.7516 18.8661 13.7076 18.9107 13.6767 18.954L13.3917 19.317L13.1204 19.6664L13.0802 19.654C13.0306 19.5394 12.9043 19.5022 12.7953 19.4681C12.6404 19.4601 12.4886 19.5226 12.3697 19.6193C12.2378 19.7506 12.2359 19.9463 12.1981 20.1173L12.1672 20.1792C12.0792 20.2065 11.9813 20.2176 11.8996 20.2393C11.7088 20.3012 11.5069 20.3223 11.3068 20.3136L11.2895 20.318C11.287 20.1848 11.2672 20.0529 11.256 19.9215C11.2158 19.8144 11.2077 19.7004 11.1835 19.5895C11.1402 19.4496 11.1092 19.3034 11.0336 19.1758C10.9407 18.9745 10.8317 18.7806 10.7103 18.5954C10.6248 18.4839 10.5245 18.3866 10.4334 18.2857C10.2798 18.0794 10.0531 17.9512 9.84004 17.8168C9.70687 17.7363 9.55263 17.7078 9.41079 17.6495C9.26399 17.5969 9.10108 17.5876 8.95428 17.5653L8.82606 17.5269C8.8112 17.3299 8.92145 17.1602 9.01003 16.9942C9.07197 16.8617 9.19585 16.7712 9.28505 16.6486C9.3311 16.5807 9.39028 16.5228 9.4591 16.4782C9.41946 16.565 9.45043 16.6641 9.41451 16.7508L9.46406 16.778L9.46096 16.8369C9.53777 16.9341 9.63316 17.0227 9.74589 17.0692C9.91933 17.1714 10.1268 17.2252 10.3263 17.1837C10.3907 17.1416 10.4712 17.1125 10.5071 17.0382C10.5474 16.9595 10.6032 16.8809 10.6001 16.7892C10.6027 16.6894 10.5815 16.5904 10.5381 16.5005C10.4576 16.3928 10.3244 16.3506 10.2067 16.3011C10.0469 16.2515 9.87597 16.2738 9.7143 16.3011C9.77377 16.2299 9.84685 16.1722 9.91127 16.106C9.91747 16.0688 9.88216 16.044 9.8642 16.0174L9.85553 16.0069L9.85739 16.0081ZM11.2622 17.4055C11.1507 17.4817 11.1148 17.618 11.1247 17.748C11.1656 17.8793 11.2201 18.0144 11.3291 18.1036C11.3526 18.1209 11.3613 18.1494 11.3743 18.1754C11.4771 18.2467 11.5273 18.3699 11.6252 18.448C11.7243 18.5303 11.8482 18.5718 11.969 18.614C12.0184 18.6288 12.0708 18.6308 12.1212 18.6197C12.1716 18.6087 12.2183 18.5849 12.257 18.5508C12.3809 18.4684 12.4193 18.3278 12.4694 18.1996C12.4725 18.0602 12.4837 17.906 12.4075 17.7846C12.3183 17.6607 12.2297 17.5368 12.1009 17.4458C11.8531 17.2878 11.5168 17.2339 11.2684 17.4055H11.2622Z" fill="#C7C7B3" stroke="#C7C7B3" stroke-width="0.015"/>
<path opacity="0.78" d="M13.9627 8.98096C14.0104 8.98963 13.9596 9.05838 13.9336 9.02122L13.9627 8.98096Z" fill="#221C1B" stroke="#221C1B" stroke-width="0.015"/>
<path opacity="0.7" d="M22.476 10.8999C22.5069 10.8863 22.5255 10.8968 22.5348 10.9309L22.51 10.9402C22.4766 10.9421 22.4654 10.9291 22.4766 10.9006L22.476 10.8999Z" fill="#190E08" stroke="#190E08" stroke-width="0.015"/>
<path d="M21.7924 11.0671C21.9503 11.1873 22.0495 11.3632 22.1541 11.528C22.1033 11.5466 22.0408 11.585 21.9894 11.5478C21.8246 11.4549 21.7602 11.2468 21.793 11.0671H21.7924ZM22.6212 12.8492C22.5109 12.6869 22.4106 12.4887 22.4676 12.2868C22.5255 12.2989 22.5814 12.3193 22.6336 12.3475L22.5605 12.3493C22.6843 12.5308 22.8082 12.721 22.8132 12.9545C22.7463 12.9272 22.6707 12.9068 22.6274 12.8492H22.6212ZM22.9879 14.3494C22.8237 14.2032 22.8064 13.9282 22.9507 13.7628C23.0486 13.8954 23.1099 14.0725 23.0696 14.2317C23.0653 14.2831 23.0182 14.3135 22.9879 14.3556V14.3494ZM9.71511 16.8394C9.76776 16.736 9.86624 16.666 9.95482 16.5948C10.0936 16.5601 10.2397 16.5929 10.3791 16.6134C10.4411 16.679 10.451 16.7806 10.4126 16.8636C10.3921 16.959 10.3054 17.0346 10.2082 17.0395C10.0942 17.0488 9.98517 17.0023 9.88358 16.9553C9.82288 16.9243 9.75475 16.8977 9.71387 16.8401L9.71511 16.8394ZM11.3782 17.7562C11.4835 17.6979 11.6105 17.7048 11.727 17.7091C11.9636 17.7401 12.1265 17.9308 12.2881 18.0882C12.2881 18.2306 12.2262 18.4121 12.0775 18.4567C11.8824 18.4431 11.7059 18.3254 11.5944 18.1668C11.5549 18.1083 11.4969 18.0647 11.4296 18.043L11.4216 17.9891C11.3677 17.9321 11.2742 17.8063 11.3782 17.7555V17.7562ZM12.3922 19.8975C12.4108 19.8095 12.4678 19.7364 12.5316 19.677C12.6654 19.8907 12.7007 20.1527 12.6846 20.4004C12.6373 20.4416 12.5926 20.4857 12.5508 20.5324C12.3897 20.5528 12.2689 20.3435 12.334 20.2041C12.3687 20.105 12.36 19.9978 12.3916 19.8981L12.3922 19.8975Z" fill="#FC0101" stroke="#FC0101" stroke-width="0.015"/>
<path d="M21.9395 11.0702C21.9921 11.0826 22.0559 11.0826 22.0906 11.1321C22.1425 11.2009 22.1866 11.2753 22.2219 11.3539C22.1197 11.2672 22.0373 11.1681 21.9401 11.0702H21.9395ZM22.4672 12.2867C22.4778 12.2644 22.4907 12.2432 22.5056 12.2235C22.6276 12.2935 22.7441 12.3846 22.8066 12.5159C22.8531 12.6193 22.928 12.7092 22.9553 12.8206C22.8791 12.7389 22.8686 12.6193 22.7955 12.5345L22.6326 12.3468C22.5803 12.319 22.5244 12.2986 22.4666 12.2861L22.4672 12.2867ZM23.1157 13.7473C23.2922 13.8216 23.3046 14.0477 23.2501 14.2069L23.213 14.2242C23.2123 14.1462 23.2179 14.0669 23.2068 13.9889C23.1838 13.9052 23.1411 13.8291 23.1151 13.7411L23.1157 13.7473Z" fill="#97967C" stroke="#97967C" stroke-width="0.015"/>
<path d="M22.5025 14.239C22.5694 14.4013 22.614 14.5735 22.6035 14.7507C22.837 14.7773 23.0593 14.6739 23.2476 14.5438C23.3455 14.4818 23.457 14.4199 23.5406 14.3394C23.5202 14.4651 23.4124 14.545 23.3653 14.6584C23.2414 14.9154 23.0556 15.1248 22.8735 15.3354C22.7806 15.3973 22.7001 15.4717 22.6258 15.546C22.6196 15.4258 22.6344 15.3057 22.6121 15.1867C22.5812 15.0121 22.6109 14.8337 22.5935 14.6584C22.5966 14.5122 22.5235 14.3809 22.5093 14.2372L22.5025 14.239ZM13.6232 18.2429C13.7372 18.456 13.7595 18.7056 13.7694 18.9429C13.7384 19.1411 13.7496 19.3436 13.7496 19.5437C13.7607 19.7698 13.6876 19.9884 13.6827 20.2127C13.6765 20.3365 13.6548 20.4604 13.6307 20.5824L13.4962 20.728C13.4312 20.7714 13.3507 20.7714 13.2763 20.7807C13.1543 20.8822 12.9995 20.9262 12.8514 20.9714C12.7375 20.9999 12.626 21.0377 12.5095 21.0532L11.8777 21.1244C11.6138 21.1368 11.3525 21.174 11.0911 21.2049L11.2546 20.6023C11.2719 20.5093 11.2558 20.4164 11.2905 20.3235L11.3079 20.3192C11.5083 20.329 11.7089 20.3039 11.9006 20.2449L12.1682 20.1848L12.1992 20.1228C12.1744 20.2219 12.1496 20.3248 12.1682 20.4325C12.1798 20.4989 12.2098 20.5608 12.2548 20.6109C12.2998 20.6611 12.358 20.6976 12.4228 20.7162C12.5493 20.7415 12.6807 20.7195 12.792 20.6543C13.1314 20.4765 13.2664 19.9946 13.0831 19.6595L13.1234 19.6719C13.2051 19.548 13.3092 19.4427 13.3947 19.3226L13.6796 18.9596C13.7106 18.9162 13.7539 18.8716 13.7465 18.814C13.7341 18.6282 13.6845 18.4424 13.6276 18.2547L13.6232 18.2429Z" fill="#65655B" stroke="#65655B" stroke-width="0.015"/>
<path d="M13.3002 15.9958L13.3287 15.6761C13.3262 15.8508 13.3609 16.0243 13.3522 16.1989C13.3293 16.1327 13.2946 16.0676 13.3002 15.9958Z" fill="#4B493B" stroke="#4B493B" stroke-width="0.015"/>
<path d="M22.8263 27.4703L21.126 28.3078L21.1105 21.9569L19.6078 23.586L18.9698 27.2405L17.604 28.0024L18.12 17.722L19.3043 17.0221L19.1222 23.6932C19.5979 22.9418 20.0278 22.3781 20.4124 22.0022L20.9885 21.4447C21.3124 21.1399 21.6822 20.9876 22.0972 20.9876C22.5327 20.9876 22.791 21.0892 22.8715 21.2923C23.0028 21.6373 23.0697 22.1552 23.0697 22.8458L22.9483 25.7694L22.8269 27.4753L22.8263 27.4703ZM26.8184 27.1656C26.0491 27.1656 25.3504 26.9921 24.7235 26.6478C23.9542 26.2216 23.5702 25.653 23.5702 24.9419C23.5702 24.3535 23.8582 23.8455 24.4355 23.4181C24.8815 23.0837 25.4371 22.8297 26.1054 22.6563C26.4597 22.5646 26.8593 22.52 27.3046 22.52C27.6886 22.52 28.1445 22.5863 28.6704 22.7182C28.9364 22.7598 29.1901 22.8585 29.4143 23.0075C29.2118 22.5813 28.8383 22.2053 28.2913 21.8801C27.8361 21.6064 27.1733 21.3673 26.3092 21.1641L25.0493 20.9207L24.7396 19.5803C24.8307 19.5803 25.0784 19.6311 25.4829 19.7326C26.9707 20.1086 28.134 20.6512 28.9739 21.3617C29.8442 22.1031 30.3453 23.1084 30.4766 24.377V27.1643L29.7482 27.0727L29.7327 26.1287C29.4845 26.366 29.2033 26.5661 28.8977 26.7227C28.3403 27.0169 27.6478 27.1643 26.8184 27.1643V27.1656ZM27.304 24.6675C26.9602 24.748 26.6722 24.8861 26.4387 25.0788C26.1661 25.3123 26.0286 25.5917 26.0286 25.9162C26.0286 26.4644 26.4232 26.7388 27.2129 26.7388C27.6279 26.7388 28.0324 26.6323 28.427 26.4192C28.9027 26.1714 29.1405 25.8456 29.1405 25.4591C29.1382 25.3921 29.128 25.3256 29.1102 25.2609C28.9987 24.8242 28.5837 24.6062 27.8714 24.6062H27.6434C27.6032 24.6062 27.4917 24.6266 27.3089 24.6669L27.304 24.6675ZM37.1248 26.0686C36.6292 26.3938 35.8345 26.6676 34.7419 26.8912L33.2243 27.1501L33.4969 31.0028L32.4346 31.0945L31.9793 25.7942L31.4479 25.7335L31.1134 21.0123L32.5399 20.5106C33.6932 20.1656 34.6954 19.9928 35.5453 19.9928C37.6401 19.9928 38.6875 20.8414 38.6875 22.5361C38.6875 24.2011 38.1672 25.3854 37.1241 26.0692L37.1248 26.0686ZM35.4852 23.7229C35.4647 23.713 35.409 23.7074 35.3179 23.7074C35.0349 23.7074 34.5641 23.7532 33.9057 23.8437L32.9493 23.9961L33.1475 26.4489L33.6331 26.418C34.7865 26.3263 35.5558 26.0624 35.9404 25.6263C36.1733 25.3625 36.2898 25.0689 36.2898 24.7282C36.2898 24.1596 36.0216 23.8239 35.4846 23.7229H35.4852ZM40.7068 19.1231C40.3525 19.1231 40.049 19.0426 39.7963 18.8797C39.4829 18.6877 39.3255 18.4275 39.3255 18.103C39.3255 17.8552 39.5027 17.626 39.857 17.4328C40.1704 17.2705 40.464 17.1893 40.7366 17.1893C41.071 17.1893 41.3745 17.2606 41.6471 17.4024C41.9816 17.5758 42.1488 17.8137 42.1488 18.1185C42.1488 18.4529 41.9878 18.7131 41.6632 18.8952C41.3907 19.0476 41.071 19.1244 40.7068 19.1244V19.1231ZM39.9635 27.2405L40.0397 22.8848L42.3774 22.7325L42.9999 27.3471L39.9635 27.2405Z" fill="white"/>
</svg>
