<svg width="25" height="21" viewBox="0 0 25 21" fill="none" xmlns="http://www.w3.org/2000/svg">
<path d="M12.1685 6.0122L4.167 12.6024V19.7151C4.167 19.8993 4.24016 20.0759 4.37038 20.2061C4.5006 20.3364 4.67722 20.4095 4.86139 20.4095L9.72473 20.3969C9.90829 20.396 10.084 20.3225 10.2135 20.1923C10.343 20.0622 10.4156 19.8861 10.4156 19.7025V15.5488C10.4156 15.3646 10.4888 15.188 10.619 15.0578C10.7493 14.9276 10.9259 14.8544 11.11 14.8544H13.8876C14.0718 14.8544 14.2484 14.9276 14.3786 15.0578C14.5088 15.188 14.582 15.3646 14.582 15.5488V19.6995C14.5817 19.7909 14.5995 19.8814 14.6342 19.9659C14.669 20.0504 14.7201 20.1272 14.7846 20.1919C14.8491 20.2566 14.9258 20.308 15.0101 20.343C15.0945 20.378 15.185 20.3961 15.2764 20.3961L20.138 20.4095C20.3222 20.4095 20.4988 20.3364 20.629 20.2061C20.7592 20.0759 20.8324 19.8993 20.8324 19.7151V12.5976L12.8326 6.0122C12.7385 5.93639 12.6214 5.89505 12.5006 5.89505C12.3798 5.89505 12.2626 5.93639 12.1685 6.0122ZM24.8078 10.4915L21.1796 7.5008V1.48954C21.1796 1.35142 21.1247 1.21895 21.027 1.12129C20.9294 1.02362 20.7969 0.96875 20.6588 0.96875H18.2284C18.0903 0.96875 17.9578 1.02362 17.8602 1.12129C17.7625 1.21895 17.7076 1.35142 17.7076 1.48954V4.64078L13.8221 1.44397C13.4492 1.13713 12.9813 0.969363 12.4984 0.969363C12.0155 0.969363 11.5476 1.13713 11.1747 1.44397L0.189004 10.4915C0.136268 10.535 0.0926378 10.5886 0.0606055 10.649C0.0285733 10.7095 0.00876702 10.7757 0.00231847 10.8438C-0.00413009 10.9119 0.00290544 10.9806 0.0230231 11.046C0.0431407 11.1114 0.0759461 11.1722 0.119565 11.2249L1.22625 12.5703C1.26975 12.6232 1.32326 12.667 1.3837 12.6992C1.44415 12.7314 1.51035 12.7513 1.57852 12.7579C1.64669 12.7644 1.71548 12.7575 1.78096 12.7375C1.84645 12.7174 1.90733 12.6846 1.96013 12.641L12.1685 4.23282C12.2626 4.15701 12.3798 4.11567 12.5006 4.11567C12.6214 4.11567 12.7385 4.15701 12.8326 4.23282L23.0414 12.641C23.0941 12.6846 23.1549 12.7174 23.2203 12.7376C23.2857 12.7577 23.3544 12.7647 23.4225 12.7583C23.4906 12.7518 23.5568 12.732 23.6173 12.7C23.6777 12.668 23.7313 12.6243 23.7749 12.5716L24.8815 11.2262C24.9251 11.1732 24.9578 11.1121 24.9777 11.0464C24.9975 10.9807 25.0043 10.9118 24.9974 10.8435C24.9905 10.7752 24.9703 10.709 24.9377 10.6485C24.9052 10.5881 24.861 10.5347 24.8078 10.4915Z" fill="white"/>
</svg>
