<svg width="39" height="41" viewBox="0 0 39 41" fill="none" xmlns="http://www.w3.org/2000/svg">
<path d="M38.9794 9.11782C38.9794 9.09726 38.9589 9.07669 38.9589 9.05614C38.9383 9.01502 38.9383 8.99446 38.9178 8.95334C38.8972 8.93278 38.8972 8.91224 38.8766 8.89168C38.8561 8.87112 38.8355 8.83 38.815 8.80944C38.7944 8.78888 38.7739 8.76831 38.7533 8.76831C38.7327 8.74775 38.7122 8.72721 38.6916 8.70665L31.1465 4.34817C30.9615 4.24538 30.7148 4.24538 30.5092 4.34817L22.9642 8.70665C22.9436 8.72721 22.923 8.74775 22.9025 8.76831C22.8819 8.78887 22.8614 8.78888 22.8408 8.80944C22.8202 8.83 22.7997 8.85056 22.7791 8.89168C22.7586 8.91224 22.738 8.93278 22.738 8.95334C22.7174 8.99446 22.7174 9.01502 22.6969 9.05614C22.6969 9.07669 22.6763 9.09726 22.6763 9.11782C22.6558 9.1795 22.6558 9.2206 22.6558 9.28228V17.5675L16.3648 21.2064V5.00607C16.3648 4.94439 16.3648 4.90326 16.3442 4.84159C16.3442 4.82103 16.3237 4.80048 16.3237 4.77993C16.3031 4.73881 16.3031 4.71825 16.2826 4.67713C16.262 4.65657 16.262 4.636 16.2414 4.61545C16.2209 4.59489 16.2003 4.55376 16.1798 4.53321C16.1592 4.51265 16.1386 4.4921 16.1181 4.4921C16.0975 4.47154 16.077 4.45097 16.0564 4.43041L8.49077 0.0925145C8.30574 -0.0308382 8.05904 -0.0308382 7.85346 0.0925145L0.308382 4.45096C0.287823 4.47152 0.267267 4.49209 0.246708 4.51265C0.226149 4.53321 0.20558 4.5332 0.185021 4.55376C0.164463 4.57432 0.143906 4.59488 0.123348 4.636C0.102789 4.65656 0.0822276 4.67713 0.0822276 4.69769C0.0616688 4.71824 0.0616788 4.75936 0.0411201 4.80048C0.0411201 4.82104 0.0205538 4.84158 0.0205538 4.86214C-5.01954e-06 4.92382 0 4.96494 0 5.02662V30.9307C0 31.1568 0.123353 31.3624 0.308382 31.4858L15.4191 40.2027C15.4602 40.2232 15.4808 40.2438 15.5219 40.2438C15.5424 40.2438 15.563 40.2644 15.563 40.2644C15.6247 40.2849 15.6658 40.2849 15.7275 40.2849C15.7891 40.2849 15.8303 40.2849 15.8919 40.2644C15.9125 40.2644 15.9125 40.2438 15.9331 40.2438C15.9742 40.2233 16.0153 40.2232 16.0358 40.2027L31.1465 31.4858C31.3521 31.3624 31.4549 31.1568 31.4549 30.9307V22.6455L38.6916 18.4721C38.8972 18.3693 39 18.1431 39 17.917V9.28228C39 9.2206 39 9.1795 38.9794 9.11782ZM15.7069 30.1906L9.41592 26.6339L16.0153 22.8305L23.252 18.6571L29.543 22.296L24.9378 24.9275L15.7069 30.1906ZM30.2008 14.0108V21.2064L27.5488 19.685L23.8893 17.5675V10.3719L26.5414 11.8933L30.2008 14.0108ZM30.8176 5.64338L37.1086 9.28228L30.8176 12.9212L24.5266 9.28228L30.8176 5.64338ZM11.4307 24.0229L8.7786 25.5443V9.71403L12.4381 7.59647L15.0901 6.07511V21.9054L11.4307 24.0229ZM8.16184 1.36715L14.4528 5.00607L8.16184 8.64496L1.87084 5.00607L8.16184 1.36715ZM1.23353 6.09567L3.8856 7.61702L7.54507 9.73459V26.6544C7.54507 26.675 7.54507 26.6956 7.54507 26.7161C7.54507 26.7572 7.54507 26.7778 7.56563 26.8189C7.56563 26.8395 7.58618 26.8601 7.58618 26.8806C7.60674 26.9012 7.60674 26.9423 7.6273 26.9628C7.64786 26.9834 7.66842 27.004 7.66842 27.0245C7.68898 27.0451 7.70954 27.0656 7.73009 27.0862C7.75065 27.1068 7.77121 27.1067 7.79177 27.1273C7.81233 27.1479 7.8329 27.1684 7.85346 27.189L15.0901 31.3007V38.558L1.23353 30.5606V6.09567ZM30.2008 30.5606L16.3442 38.558V31.3007L26.603 25.4415L30.2008 23.3856V30.5606ZM37.7459 17.5675L31.4549 21.2064V14.0108L35.1144 11.8933L37.7665 10.3719L37.7459 17.5675Z" fill="#FF2D20"/>
</svg>
