<svg width="25" height="26" viewBox="0 0 25 26" fill="none" xmlns="http://www.w3.org/2000/svg">
<path d="M12.5028 7.05907C8.95566 7.05907 6.09453 9.92083 6.09453 13.4688C6.09453 17.0167 8.95566 19.8784 12.5028 19.8784C16.0499 19.8784 18.911 17.0167 18.911 13.4688C18.911 9.92083 16.0499 7.05907 12.5028 7.05907ZM12.5028 17.6359C10.2105 17.6359 8.33659 15.7671 8.33659 13.4688C8.33659 11.1704 10.205 9.30162 12.5028 9.30162C14.8006 9.30162 16.669 11.1704 16.669 13.4688C16.669 15.7671 14.795 17.6359 12.5028 17.6359ZM20.6679 6.79688C20.6679 7.62807 19.9986 8.29191 19.1732 8.29191C18.3422 8.29191 17.6785 7.62249 17.6785 6.79688C17.6785 5.97126 18.3477 5.30184 19.1732 5.30184C19.9986 5.30184 20.6679 5.97126 20.6679 6.79688ZM24.9122 8.31423C24.8173 6.31155 24.36 4.53759 22.8932 3.07602C21.432 1.61446 19.6584 1.15702 17.6562 1.05661C15.5926 0.939463 9.40742 0.939463 7.34384 1.05661C5.34718 1.15145 3.57362 1.60888 2.1068 3.07045C0.639989 4.53201 0.188232 6.30597 0.0878416 8.30865C-0.0292805 10.3727 -0.0292805 16.5592 0.0878416 18.6233C0.182655 20.626 0.639989 22.3999 2.1068 23.8615C3.57362 25.323 5.34161 25.7805 7.34384 25.8809C9.40742 25.998 15.5926 25.998 17.6562 25.8809C19.6584 25.7861 21.432 25.3286 22.8932 23.8615C24.3544 22.3999 24.8118 20.626 24.9122 18.6233C25.0293 16.5592 25.0293 10.3783 24.9122 8.31423ZM22.2462 20.8379C21.8112 21.9313 20.969 22.7737 19.8703 23.2144C18.225 23.8671 14.321 23.7164 12.5028 23.7164C10.6846 23.7164 6.77496 23.8615 5.13525 23.2144C4.04211 22.7792 3.19994 21.9369 2.75934 20.8379C2.1068 19.1923 2.25739 15.2873 2.25739 13.4688C2.25739 11.6502 2.11238 7.73964 2.75934 6.09957C3.19437 5.00618 4.03653 4.16383 5.13525 3.72313C6.78054 3.07045 10.6846 3.22107 12.5028 3.22107C14.321 3.22107 18.2306 3.07602 19.8703 3.72313C20.9635 4.15825 21.8056 5.0006 22.2462 6.09957C22.8988 7.74522 22.7482 11.6502 22.7482 13.4688C22.7482 15.2873 22.8988 19.1979 22.2462 20.8379Z" fill="white"/>
</svg>
