<svg width="21" height="22" viewBox="0 0 21 22" fill="none" xmlns="http://www.w3.org/2000/svg">
<path d="M-0.000244141 9.16667C-0.000244141 4.10396 4.31372 0 9.63527 0H10.5988C15.9204 0 20.2343 4.10396 20.2343 9.16667V22C17.8 22 17.8254 18.3333 16.8619 18.3333C15.8983 18.3333 15.9238 22 13.4895 22C11.0516 22 10.945 18.3333 10.117 18.3333C9.28906 18.3333 9.18249 22 6.74461 22C4.31028 22 4.33573 18.3333 3.37218 18.3333C2.40863 18.3333 2.43408 22 -0.000244141 22V9.16667Z" fill="#1CE1EE"/>
<rect x="13.9216" y="6.4165" width="5.18835" height="6.875" rx="2.59418" fill="white"/>
<rect x="15.2188" y="8.97217" width="3.89126" height="3.70192" rx="1.85096" fill="#262626"/>
<rect x="4.81763" y="6.4165" width="5.18835" height="6.875" rx="2.59418" fill="white"/>
<rect x="6.11475" y="8.97217" width="3.89126" height="3.70192" rx="1.85096" fill="#262626"/>
</svg>
