<svg width="21" height="22" viewBox="0 0 21 22" fill="none" xmlns="http://www.w3.org/2000/svg">
<path d="M0 9.16667C0 4.10396 4.31397 0 9.63551 0H10.5991C15.9206 0 20.2346 4.10396 20.2346 9.16667V22C17.8002 22 17.8257 18.3333 16.8621 18.3333C15.8986 18.3333 15.924 22 13.4897 22C11.0518 22 10.9453 18.3333 10.1173 18.3333C9.2893 18.3333 9.18273 22 6.74486 22C4.31053 22 4.33598 18.3333 3.37243 18.3333C2.40888 18.3333 2.43433 22 0 22V9.16667Z" fill="#7031E7"/>
<rect x="13.9221" y="6.4165" width="5.18835" height="6.875" rx="2.59418" fill="white"/>
<rect x="15.219" y="8.97217" width="3.89126" height="3.70192" rx="1.85096" fill="#262626"/>
<rect x="4.81787" y="6.4165" width="5.18835" height="6.875" rx="2.59418" fill="white"/>
<rect x="6.11499" y="8.97217" width="3.89126" height="3.70192" rx="1.85096" fill="#262626"/>
</svg>
