<svg width="21" height="22" viewBox="0 0 21 22" fill="none" xmlns="http://www.w3.org/2000/svg">
<path d="M0.5 9.16667C0.5 4.40332 4.56631 0.5 9.63551 0.5H10.5991C15.6683 0.5 19.7346 4.40332 19.7346 9.16667V21.4222C19.1499 21.2262 18.7788 20.6758 18.4517 19.9591C18.3607 19.7596 18.2786 19.5598 18.1967 19.3606C18.1889 19.3415 18.181 19.3224 18.1732 19.3033C18.0858 19.0908 17.9957 18.8739 17.9008 18.6834C17.8082 18.4973 17.6937 18.3 17.5445 18.1446C17.3882 17.9818 17.1613 17.8333 16.8621 17.8333C16.5629 17.8333 16.3361 17.9818 16.1798 18.1446C16.0306 18.3 15.9161 18.4973 15.8234 18.6834C15.7286 18.8739 15.6385 19.0908 15.5511 19.3033C15.5432 19.3224 15.5354 19.3414 15.5276 19.3605C15.4458 19.5597 15.3636 19.7596 15.2726 19.9591C14.8608 20.8613 14.3793 21.5 13.4897 21.5C12.5907 21.5 12.0773 20.8499 11.6515 19.9524C11.5486 19.7354 11.4566 19.5164 11.3669 19.3012L11.3507 19.2622C11.2684 19.0646 11.1853 18.8651 11.1017 18.6904C11.0148 18.5089 10.91 18.316 10.7777 18.1634C10.6445 18.0097 10.4264 17.8333 10.1173 17.8333C9.80818 17.8333 9.5901 18.0097 9.45685 18.1634C9.32457 18.316 9.21973 18.5089 9.13286 18.6904C9.04925 18.8651 8.96616 19.0646 8.88389 19.2622L8.86763 19.3012C8.77794 19.5164 8.68598 19.7354 8.58304 19.9524C8.15726 20.8499 7.64389 21.5 6.74486 21.5C5.85529 21.5 5.37377 20.8613 4.96196 19.9591C4.87093 19.7596 4.78882 19.5597 4.70699 19.3605C4.69916 19.3415 4.69132 19.3224 4.68349 19.3033C4.59607 19.0908 4.50596 18.8739 4.41113 18.6834C4.31847 18.4973 4.20401 18.3 4.05479 18.1446C3.89852 17.9818 3.67162 17.8333 3.37243 17.8333C3.07324 17.8333 2.84634 17.9818 2.69007 18.1446C2.54085 18.3 2.42638 18.4973 2.33372 18.6834C2.23889 18.8739 2.14878 19.0908 2.06137 19.3033C2.05353 19.3224 2.04569 19.3415 2.03785 19.3606C1.95604 19.5597 1.87392 19.7596 1.78289 19.9591C1.45578 20.6758 1.08467 21.2262 0.5 21.4222V9.16667Z" fill="black" stroke="black"/>
<rect x="13.9219" y="6.4165" width="5.18835" height="6.875" rx="2.59418" fill="white"/>
<rect x="15.219" y="8.97217" width="3.89126" height="3.70192" rx="1.85096" fill="#262626"/>
<rect x="4.81787" y="6.4165" width="5.18835" height="6.875" rx="2.59418" fill="white"/>
<rect x="6.11499" y="8.97217" width="3.89126" height="3.70192" rx="1.85096" fill="#262626"/>
</svg>
