<svg width="25" height="26" viewBox="0 0 25 26" fill="none" xmlns="http://www.w3.org/2000/svg">
<path d="M23.705 15.9163C23.8669 15.1348 23.9674 14.3032 23.9674 13.4715C23.9674 7.13641 18.8379 2.01251 12.5083 2.01251C11.6767 2.01251 10.8506 2.10739 10.0636 2.27484C9.00311 1.45435 7.68585 0.96875 6.25138 0.96875C2.80196 0.96875 0 3.77071 0 7.22013C0 8.6546 0.485598 9.97186 1.30051 11.0268C1.13864 11.8082 1.03818 12.6399 1.03818 13.4715C1.03818 19.8066 6.16766 24.9305 12.4972 24.9305C13.3288 24.9305 14.1549 24.8356 14.9419 24.6682C16.0024 25.4831 17.3197 25.9687 18.7486 25.9687C22.198 25.9687 25 23.1667 25 19.7173C25.0055 18.2884 24.5199 16.9712 23.705 15.9163ZM12.8432 21.0234C9.18172 21.0234 6.11742 19.3936 6.11742 17.3954C6.11742 16.5023 6.61977 15.6874 7.764 15.6874C9.50545 15.6874 9.66732 18.1935 12.6814 18.1935C14.1158 18.1935 15.0424 17.5572 15.0424 16.7256C15.0424 15.6818 14.1493 15.52 12.6981 15.1627C9.20963 14.3032 6.12301 13.9348 6.12301 10.2956C6.12301 6.99129 9.39382 5.76892 12.2125 5.76892C15.288 5.76892 18.3969 6.99129 18.3969 8.86112C18.3969 9.80441 17.7606 10.6361 16.7057 10.6361C15.1261 10.6361 15.0759 8.76623 12.5195 8.76623C11.085 8.76623 10.1752 9.15695 10.1752 10.0221C10.1752 11.1272 11.3362 11.2389 14.0321 11.864C16.3429 12.3831 19.0946 13.3599 19.0946 16.1953C19.0946 19.4941 15.9075 21.0234 12.8432 21.0234Z" fill="white"/>
</svg>
