<svg width="25" height="26" viewBox="0 0 25 26" fill="none" xmlns="http://www.w3.org/2000/svg">
<path d="M12.5 0.96875C5.59476 0.96875 0 6.56351 0 13.4688C0 20.374 5.59476 25.9688 12.5 25.9688C19.4052 25.9688 25 20.374 25 13.4688C25 6.56351 19.4052 0.96875 12.5 0.96875ZM18.6391 9.53226L16.5877 19.1996C16.4365 19.8851 16.0282 20.0514 15.4587 19.7288L12.3337 17.4254L10.8266 18.877C10.6603 19.0433 10.5192 19.1845 10.1966 19.1845L10.4183 16.004L16.2097 10.7722C16.4617 10.5504 16.1542 10.4244 15.8216 10.6462L8.66431 15.1522L5.57964 14.1895C4.90927 13.9778 4.89415 13.5192 5.72077 13.1966L17.7722 8.5494C18.3317 8.34778 18.8206 8.68548 18.6391 9.53226Z" fill="white"/>
</svg>
