<svg width="25" height="16" viewBox="0 0 25 16" fill="none" xmlns="http://www.w3.org/2000/svg">
<path d="M24.4302 1.94265C24.602 1.38165 24.4302 0.96875 23.6041 0.96875H20.8706C20.1744 0.96875 19.8542 1.3233 19.6825 1.71825C19.6825 1.71825 18.2902 4.999 16.3224 7.12633C15.6866 7.74119 15.3942 7.93866 15.0461 7.93866C14.8744 7.93866 14.6099 7.74119 14.6099 7.18019V1.94265C14.6099 1.26945 14.415 0.96875 13.8395 0.96875H9.5419C9.10565 0.96875 8.84575 1.28291 8.84575 1.57463C8.84575 2.21193 9.82964 2.36004 9.93174 4.15525V8.05086C9.93174 8.90359 9.77395 9.06067 9.42587 9.06067C8.49767 9.06067 6.24215 5.76646 4.90554 1.99651C4.63636 1.26496 4.37182 0.96875 3.67103 0.96875H0.937482C0.157794 0.96875 0 1.3233 0 1.71825C0 2.41838 0.9282 5.89661 4.32077 10.4924C6.58094 13.6295 9.76467 15.3305 12.6607 15.3305C14.401 15.3305 14.6145 14.9535 14.6145 14.3027C14.6145 11.3047 14.4567 11.0219 15.3292 11.0219C15.733 11.0219 16.4291 11.2194 18.0535 12.7319C19.9099 14.5271 20.2162 15.3305 21.2558 15.3305H23.9893C24.769 15.3305 25.1635 14.9535 24.9361 14.2084C24.4163 12.6421 20.9031 9.41971 20.7453 9.20429C20.3415 8.70163 20.4575 8.47723 20.7453 8.02842C20.7499 8.02394 24.0868 3.48205 24.4302 1.94265Z" fill="white"/>
</svg>
