<svg width="25" height="26" viewBox="0 0 25 26" fill="none" xmlns="http://www.w3.org/2000/svg">
<path d="M21.2556 4.60156C18.9174 2.25781 15.8036 0.96875 12.4944 0.96875C5.66406 0.96875 0.106027 6.52679 0.106027 13.3571C0.106027 15.5391 0.675223 17.6708 1.75781 19.5513L0 25.9688L6.56808 24.2444C8.37612 25.2321 10.4129 25.7511 12.4888 25.7511H12.4944C19.3192 25.7511 25 20.1931 25 13.3627C25 10.0536 23.5938 6.94531 21.2556 4.60156ZM12.4944 23.6641C10.6417 23.6641 8.82812 23.1674 7.24888 22.2299L6.875 22.0067L2.97991 23.0279L4.01786 19.2277L3.77232 18.8371C2.73996 17.1964 2.19866 15.3047 2.19866 13.3571C2.19866 7.68192 6.8192 3.06138 12.5 3.06138C15.2511 3.06138 17.8348 4.13281 19.7768 6.08036C21.7188 8.0279 22.9129 10.6116 22.9074 13.3627C22.9074 19.0435 18.1696 23.6641 12.4944 23.6641ZM18.1417 15.952C17.8348 15.7958 16.3114 15.048 16.0268 14.9475C15.7422 14.8415 15.5357 14.7913 15.3292 15.1038C15.1228 15.4163 14.5312 16.1083 14.3471 16.3203C14.1685 16.5268 13.9844 16.5547 13.6775 16.3984C11.8583 15.4888 10.6641 14.7746 9.46429 12.7154C9.14621 12.1685 9.78237 12.2076 10.3739 11.0246C10.4743 10.8181 10.4241 10.6395 10.346 10.4833C10.2679 10.327 9.64844 8.80357 9.39174 8.18415C9.14062 7.58147 8.88393 7.66518 8.6942 7.65402C8.51562 7.64286 8.30915 7.64286 8.10268 7.64286C7.8962 7.64286 7.56138 7.72098 7.27679 8.0279C6.99219 8.3404 6.1942 9.08817 6.1942 10.6116C6.1942 12.135 7.30469 13.6083 7.45536 13.8147C7.61161 14.0212 9.63728 17.1462 12.7455 18.4911C14.7098 19.3393 15.4799 19.4118 16.4621 19.2667C17.0592 19.1775 18.2924 18.519 18.5491 17.7935C18.8058 17.0681 18.8058 16.4487 18.7277 16.3203C18.6551 16.1808 18.4487 16.1027 18.1417 15.952Z" fill="white"/>
</svg>
