<svg width="30" height="34" viewBox="0 0 30 34" fill="none" xmlns="http://www.w3.org/2000/svg">
<path d="M29.8354 20.7081C30.0402 20.5229 30.0561 20.2067 29.8708 20.0019C29.6856 19.7971 29.3694 19.7812 29.1646 19.9665L29.8354 20.7081ZM15.5 33L15.1775 33.3821C15.3687 33.5435 15.6498 33.5387 15.8354 33.3708L15.5 33ZM0.82253 19.9552C0.611522 19.7771 0.296064 19.8038 0.117934 20.0148C-0.0601949 20.2258 -0.0335416 20.5412 0.177468 20.7194L0.82253 19.9552ZM16 0.999999C16 0.723857 15.7761 0.499999 15.5 0.499999C15.2239 0.499999 15 0.723857 15 0.999999L16 0.999999ZM29.1646 19.9665L15.1646 32.6292L15.8354 33.3708L29.8354 20.7081L29.1646 19.9665ZM15.8225 32.6179L0.82253 19.9552L0.177468 20.7194L15.1775 33.3821L15.8225 32.6179ZM16 33L16 0.999999L15 0.999999L15 33L16 33Z" fill="#FFD600"/>
</svg>
