<svg width="30" height="24" viewBox="0 0 30 24" fill="none" xmlns="http://www.w3.org/2000/svg">
<path d="M29.6497 12.2274L29.6513 12.2259C29.7829 12.1047 29.7829 11.8947 29.6513 11.7734L29.6497 11.7719L22.8956 5.43492C22.7714 5.31851 22.5725 5.32229 22.4511 5.44807C22.4508 5.44836 22.4505 5.44865 22.4502 5.44895L20.4132 7.62179L20.4131 7.62191C20.2931 7.74972 20.3016 7.95275 20.4336 8.06938L29.6497 12.2274ZM29.6497 12.2274L22.8975 18.558C22.8972 18.5582 22.8969 18.5585 22.8967 18.5587C22.7652 18.6787 22.568 18.6691 22.4539 18.5449L22.4521 18.543L20.4132 16.3682L20.4132 16.3682L20.4113 16.3661C20.2915 16.2412 20.299 16.0394 20.4336 15.9205C20.4337 15.9205 20.4337 15.9205 20.4337 15.9204L24.68 12.185L24.8933 11.9974L24.6801 11.8097L20.4337 8.06953L29.6497 12.2274ZM13.1447 23.7333L13.1433 23.7329L10.2841 22.9032L10.2821 22.9027C10.1204 22.8572 10.0227 22.6854 10.0705 22.5135C10.0706 22.5132 10.0707 22.5129 10.0708 22.5126L16.4681 0.475739L16.4687 0.473724C16.5142 0.312007 16.686 0.214259 16.8579 0.262111C16.8581 0.262192 16.8584 0.262274 16.8587 0.262356L19.7159 1.09142L19.7179 1.09198C19.8796 1.13747 19.9774 1.3093 19.9295 1.48123C19.9294 1.48149 19.9293 1.48175 19.9292 1.48201L13.5323 23.5175C13.5323 23.5176 13.5322 23.5178 13.5321 23.518C13.481 23.6892 13.3083 23.7818 13.1447 23.7333ZM7.54786 18.543L7.54612 18.5449C7.43206 18.6691 7.23576 18.6783 7.10455 18.5551L7.10443 18.555L0.350272 12.2227L0.350279 12.2227L0.348703 12.2213C0.217099 12.1 0.217099 11.89 0.348703 11.7687L0.348709 11.7687L0.350205 11.7673L7.10436 5.43966L7.10455 5.43949C7.2333 5.31862 7.43123 5.32723 7.54787 5.45164L9.58677 7.62647L9.58676 7.62648L9.58874 7.62854C9.70853 7.75343 9.70101 7.95532 9.56626 8.07422L5.31999 11.8096L5.10662 11.9973L5.31999 12.185L9.56626 15.9204C9.69842 16.037 9.70692 16.2402 9.58689 16.368L9.58677 16.3682L7.54786 18.543Z" stroke="#FFD600" stroke-width="0.5"/>
</svg>
