<svg width="105" height="63" viewBox="0 0 105 63" fill="none" xmlns="http://www.w3.org/2000/svg">
<path d="M104.988 48.713C104.988 51.1393 104.988 53.5657 104.988 55.9921C105.016 56.203 104.995 56.4175 104.927 56.6191C104.858 56.8206 104.745 57.0037 104.594 57.1542C104.443 57.3046 104.26 57.4184 104.058 57.4866C103.857 57.5548 103.642 57.5756 103.431 57.5474C98.5416 57.5474 93.6526 57.5474 88.7636 57.5474C87.6971 57.5474 87.2611 57.1586 87.1054 56.0776C87.056 55.7089 87.03 55.3375 87.0276 54.9655C87.0276 50.4239 87.0276 45.8822 87.0276 41.3406C87.0276 40.1119 87.6192 39.5519 88.8571 39.5519C93.2167 39.5519 97.5763 39.5131 101.936 39.5519C105.011 39.5986 104.98 39.8164 104.925 42.5305C104.964 44.6069 104.988 46.6677 104.988 48.713ZM101.539 48.573C101.539 47.0177 101.539 45.5245 101.539 44.0003C101.539 43.347 101.313 43.0437 100.612 43.0515C97.5607 43.0515 94.509 43.0515 91.4573 43.0515C90.8345 43.0515 90.5386 43.2459 90.5464 43.8992C90.5464 47.0099 90.5464 50.1206 90.5464 53.2313C90.5464 53.8768 90.8189 54.1023 91.4573 54.0945C94.509 54.0945 97.5607 54.0945 100.612 54.0945C101.305 54.0945 101.554 53.8223 101.547 53.1613C101.523 51.6215 101.539 50.0973 101.539 48.573Z" fill="white"/>
<path d="M28.8816 46.8388C28.8816 48.3941 28.8816 49.9495 28.8816 51.5048C28.8816 52.9358 28.8193 54.3667 28.7726 55.7976C28.782 56.0244 28.7456 56.2507 28.6654 56.4631C28.5852 56.6755 28.463 56.8695 28.306 57.0336C28.149 57.1977 27.9605 57.3284 27.7517 57.4181C27.543 57.5077 27.3183 57.5543 27.0911 57.5552C26.872 57.5545 26.6554 57.5092 26.4544 57.422C26.2535 57.3349 26.0724 57.2077 25.9223 57.0483C25.7722 56.8889 25.6562 56.7006 25.5814 56.495C25.5067 56.2893 25.4746 56.0705 25.4873 55.852C25.4406 53.2157 25.4484 50.5716 25.4328 47.9275C25.4328 47.0254 25.4328 46.1233 25.4328 45.2212C25.4 44.958 25.4277 44.6909 25.5139 44.44C25.6001 44.1892 25.7425 43.9613 25.9302 43.7738C26.1179 43.5863 26.346 43.4441 26.5971 43.358C26.8482 43.2719 27.1157 43.2442 27.3791 43.277C29.5589 43.277 31.7309 43.277 33.9107 43.277C34.4017 43.2181 34.8979 43.3307 35.3151 43.5958C35.7323 43.8609 36.0448 44.2621 36.1995 44.7313C36.978 43.1059 38.1847 43.2692 39.3602 43.2692C41.1975 43.2692 43.0348 43.2692 44.872 43.2692C46.3745 43.2692 46.9117 43.8058 46.9195 45.2834C46.9195 48.757 46.9195 52.2384 46.9195 55.7276C46.9195 56.9175 46.2967 57.5629 45.2924 57.5629C44.2882 57.5629 43.6654 56.9019 43.6576 55.7276C43.6576 52.8035 43.6576 49.8873 43.6576 46.8932H38.0601C38.0601 47.2043 38.0601 47.5387 38.0601 47.8653C38.0134 50.499 37.9641 53.1405 37.9122 55.7898C37.9209 56.2394 37.7545 56.6748 37.4481 57.0041C37.1416 57.3335 36.7191 57.531 36.2696 57.5552C36.0359 57.5566 35.8045 57.5102 35.5894 57.4189C35.3744 57.3276 35.1803 57.1934 35.0191 57.0244C34.858 56.8554 34.7331 56.6552 34.6523 56.4362C34.5715 56.2172 34.5363 55.984 34.5491 55.7509C34.4868 53.1379 34.4401 50.525 34.3856 47.9197C34.3856 47.5853 34.3856 47.2432 34.3856 46.8543L28.8816 46.8388Z" fill="white"/>
<path d="M85.0113 52.1116H74.3692V54.0792H84.9957C84.9957 54.8568 85.0424 55.5023 84.9957 56.14C84.9968 56.3135 84.9629 56.4855 84.896 56.6456C84.8291 56.8057 84.7306 56.9507 84.6064 57.0719C84.4821 57.1932 84.3346 57.2881 84.1728 57.3512C84.011 57.4142 83.8381 57.444 83.6645 57.4387C79.8654 57.4387 76.0689 57.4387 72.275 57.4387C72.0807 57.4563 71.885 57.4314 71.7014 57.3655C71.5179 57.2997 71.3509 57.1945 71.2122 57.0575C71.0736 56.9205 70.9666 56.7548 70.8987 56.5722C70.8308 56.3895 70.8037 56.1942 70.8192 56C70.8192 52.2516 70.8192 48.4877 70.8192 44.7237C70.8171 44.5332 70.8531 44.3441 70.9252 44.1677C70.9972 43.9913 71.1038 43.831 71.2387 43.6962C71.3735 43.5615 71.534 43.455 71.7106 43.3831C71.8872 43.3111 72.0765 43.2751 72.2672 43.2772C75.9677 43.2409 79.6708 43.2409 83.3764 43.2772C83.6042 43.2651 83.8318 43.3032 84.0432 43.3887C84.2545 43.4741 84.4446 43.6049 84.5998 43.7718C84.755 43.9388 84.8716 44.1377 84.9413 44.3546C85.0111 44.5715 85.0323 44.801 85.0035 45.027C85.0191 47.3211 85.0113 49.6231 85.0113 52.1116ZM81.5392 46.8157H74.3614V48.5888H81.5392V46.8157Z" fill="white"/>
<path d="M52.5011 57.5553C52.4388 58.9706 52.3999 60.2072 52.3143 61.4437C52.2988 61.8513 52.1298 62.238 51.8411 62.5264C51.5524 62.8148 51.1653 62.9836 50.7573 62.999C50.3494 63.0139 49.952 62.8682 49.6506 62.5933C49.3492 62.3184 49.1679 61.9363 49.1458 61.5292C49.1458 55.8729 49.1458 50.2218 49.1458 44.5758C49.1505 44.3957 49.1919 44.2183 49.2673 44.0546C49.3428 43.8909 49.4508 43.7442 49.5848 43.6234C49.7188 43.5027 49.8759 43.4104 50.0467 43.3522C50.2175 43.294 50.3983 43.2711 50.5782 43.2849C54.3072 43.2849 58.044 43.2849 61.773 43.2849C62.2116 43.3188 62.6195 43.5222 62.9103 43.8518C63.201 44.1815 63.3516 44.6114 63.3301 45.0502C63.3301 48.6535 63.3041 52.2567 63.2522 55.8599C63.2667 56.0768 63.2329 56.2941 63.1532 56.4963C63.0735 56.6985 62.9499 56.8805 62.7913 57.0293C62.6327 57.1781 62.443 57.2898 62.236 57.3566C62.029 57.4233 61.8097 57.4434 61.594 57.4153C58.9471 57.4697 56.308 57.5086 53.6611 57.5475C53.3107 57.5553 52.9137 57.5553 52.5011 57.5553ZM59.8268 54.0091V46.8467H52.5322V54.0324L59.8268 54.0091Z" fill="white"/>
<path d="M3.56465 43.0593V54.0712H4.56113C8.1111 54.0712 11.6533 54.0712 15.2032 54.1489C15.8765 54.0741 16.5571 54.1928 17.1651 54.4911C17.4001 54.7167 17.5852 54.9889 17.7085 55.2903C17.8319 55.5916 17.8907 55.9154 17.8813 56.2409C17.8813 57.0186 17.1884 57.4307 16.3632 57.4541C15.538 57.4774 14.4948 57.5396 13.5606 57.5396C9.76931 57.5396 5.97022 57.5396 2.17113 57.5396C0.653052 57.5552 0.0224655 56.9408 0.0146804 55.4088C0.0146804 51.9559 0.0146804 48.503 0.0146804 45.0579C0.0146804 43.9069 0.0146804 42.7249 0.0146804 41.605C-0.0188589 41.3502 0.00524312 41.0911 0.0852118 40.8468C0.165181 40.6025 0.29898 40.3792 0.476758 40.1934C0.654536 40.0076 0.871767 39.864 1.11246 39.7732C1.35315 39.6824 1.61116 39.6466 1.86751 39.6686H16.1452C16.3766 39.6445 16.6104 39.6695 16.8314 39.7419C17.0524 39.8144 17.2556 39.9327 17.4276 40.0891C17.5996 40.2455 17.7365 40.4365 17.8295 40.6495C17.9225 40.8625 17.9693 41.0927 17.9669 41.325C17.9669 42.2271 17.2585 42.8415 16.1452 42.8804L4.64677 43.0593H3.56465Z" fill="white"/>
<path d="M66.1016 19.3791L60.582 17.1161C61.0855 15.8275 62.0121 14.7479 63.2101 14.0542C64.4081 13.3605 65.8064 13.0937 67.1759 13.2977C70.3678 13.9354 72.7967 16.6261 72.6254 19.3558C72.3919 23.2053 70.2121 25.515 66.5454 25.8494C63.6493 26.1138 60.7844 23.6252 60.4419 21.4788L63.299 20.5456L66.1016 19.6357V19.3791Z" fill="white"/>
<path d="M50.5785 3.66997C51.0684 2.53429 51.8937 1.57507 52.9441 0.920527C53.9944 0.265983 55.2197 -0.0526899 56.4562 0.00710688C57.7649 0.00208749 59.0395 0.42394 60.0863 1.20857C61.1332 1.9932 61.895 3.09772 62.256 4.35433C62.5473 5.27412 62.6204 6.24897 62.4696 7.20184C62.3188 8.15471 61.9482 9.0595 61.3872 9.84471C60.8262 10.6299 60.09 11.2741 59.237 11.7262C58.3839 12.1783 57.4372 12.4261 56.4718 12.4499C55.3013 12.4999 54.1411 12.2127 53.1294 11.6226C52.1177 11.0325 51.2971 10.1643 50.7654 9.12149C50.3839 8.48379 50.5629 8.16495 51.2169 7.96275C52.5481 7.55836 53.8794 7.13841 55.2106 6.71847C55.5531 6.60959 55.8879 6.46961 56.4796 6.24408L50.5785 3.66997Z" fill="white"/>
<path d="M50.952 35.3836L56.6507 33.3461V33.0428L50.9987 30.8887C51.498 29.5624 52.4489 28.4543 53.6847 27.7589C54.9205 27.0634 56.362 26.8251 57.7561 27.0858C59.1655 27.2955 60.457 27.9911 61.4068 29.0521C62.3566 30.1131 62.9048 31.4726 62.9565 32.8951C63.0171 34.3687 62.5516 35.816 61.643 36.9786C60.7344 38.1412 59.4419 38.9435 57.9961 39.2425C56.5503 39.5414 55.0451 39.3175 53.7492 38.6107C52.4533 37.904 51.4509 36.7602 50.9209 35.3836H50.952Z" fill="white"/>
<path d="M34.7361 9.44807C35.247 8.0231 36.2677 6.83742 37.6016 6.11947C38.9356 5.40153 40.4883 5.20212 41.9606 5.55968C43.4736 5.84409 44.8276 6.67827 45.7612 7.90122C46.6948 9.12417 47.1418 10.6492 47.016 12.182C46.8903 13.7149 46.2006 15.1468 45.0801 16.2016C43.9596 17.2564 42.4877 17.8591 40.9485 17.8936C38.0369 18.0181 35.32 16.2683 34.8762 13.9275L40.3724 11.8122V11.5167L34.7361 9.44807Z" fill="white"/>
<path d="M35.0083 30.5309L40.6914 28.4389V28.1512L35.0628 26.0048C35.5657 24.6926 36.5064 23.5938 37.7261 22.894C38.9458 22.1941 40.3698 21.9359 41.7579 22.1631C42.8414 22.3265 43.8625 22.7727 44.7181 23.4564C45.5738 24.1401 46.2338 25.0373 46.6313 26.0573C47.0289 27.0773 47.1501 28.184 46.9826 29.2657C46.8151 30.3474 46.3649 31.3659 45.6774 32.2182C44.9899 33.0705 44.0894 33.7266 43.067 34.1201C42.0445 34.5137 40.9362 34.6308 39.8539 34.4596C38.7716 34.2884 37.7537 33.8351 36.9029 33.1453C36.0522 32.4555 35.3986 31.5537 35.0083 30.5309Z" fill="white"/>
<path d="M65.3699 48.4642C65.3699 46.1312 65.3699 43.7981 65.3699 41.4651C65.3391 41 65.4897 40.5411 65.7901 40.1845C66.0905 39.8279 66.5174 39.6012 66.9814 39.552C67.4661 39.5762 67.9215 39.7909 68.2482 40.1494C68.5749 40.5078 68.7464 40.9808 68.7252 41.4651C68.7252 46.1882 68.7252 50.9061 68.7252 55.6188C68.749 55.8627 68.7217 56.1088 68.6451 56.3415C68.5685 56.5742 68.4442 56.7885 68.2802 56.9706C68.1162 57.1528 67.916 57.2988 67.6924 57.3995C67.4688 57.5001 67.2266 57.5532 66.9814 57.5552C66.7517 57.5381 66.5279 57.4744 66.3236 57.3681C66.1193 57.2617 65.9388 57.115 65.7932 56.9367C65.6475 56.7584 65.5397 56.5524 65.4763 56.3312C65.4129 56.11 65.3952 55.8782 65.4244 55.6499C65.4244 53.2625 65.4244 50.875 65.4244 48.4875L65.3699 48.4642Z" fill="white"/>
<path d="M19.9677 50.2528V45.1124C19.9463 44.8815 19.9725 44.6488 20.0448 44.4285C20.117 44.2082 20.2337 44.005 20.3877 43.8315C20.5416 43.658 20.7295 43.518 20.9398 43.4199C21.1501 43.3219 21.3783 43.268 21.6103 43.2615C21.835 43.2485 22.06 43.2823 22.271 43.3606C22.482 43.4389 22.6744 43.5601 22.8361 43.7165C22.9978 43.8729 23.1253 44.0611 23.2104 44.2693C23.2956 44.4774 23.3366 44.701 23.3308 44.9257C23.3308 48.6819 23.3308 52.4381 23.2919 56.2021C23.2202 56.5967 23.007 56.9516 22.6922 57.2005C22.3774 57.4494 21.9825 57.5751 21.5816 57.5541C21.1807 57.5331 20.8012 57.3669 20.5141 57.0865C20.2271 56.8062 20.0522 56.4309 20.0222 56.031C19.9755 54.1023 20.0222 52.1426 20.0222 50.2528H19.9677Z" fill="white"/>
<path d="M21.7114 41.1619C21.4805 41.193 21.2454 41.1719 21.0237 41.1002C20.802 41.0284 20.5992 40.9079 20.4304 40.7474C20.2615 40.5869 20.1309 40.3906 20.0481 40.173C19.9653 39.9553 19.9325 39.7219 19.952 39.4899C19.9435 39.2578 19.9825 39.0263 20.0668 38.8098C20.1512 38.5933 20.2789 38.3963 20.4422 38.231C20.6056 38.0656 20.8011 37.9354 21.0167 37.8483C21.2322 37.7612 21.4634 37.7191 21.6959 37.7246C21.9282 37.7264 22.1578 37.7751 22.3709 37.8676C22.584 37.9601 22.7763 38.0946 22.9361 38.263C23.096 38.4315 23.2203 38.6304 23.3014 38.8478C23.3826 39.0653 23.4191 39.2969 23.4086 39.5288C23.4207 39.7518 23.3846 39.9748 23.3027 40.1827C23.2208 40.3905 23.0951 40.5783 22.9341 40.7333C22.773 40.8882 22.5805 41.0067 22.3695 41.0807C22.1585 41.1546 21.9341 41.1824 21.7114 41.1619Z" fill="white"/>
<path d="M66.1021 19.3791L60.5825 17.1161C61.086 15.8275 62.0126 14.7479 63.2106 14.0542C64.4085 13.3605 65.8069 13.0937 67.1764 13.2977C70.3916 13.6865 72.7972 16.6261 72.6259 19.3558C72.3924 23.2053 70.2126 25.515 66.5458 25.8494C63.6498 26.1138 60.7849 23.6252 60.4424 21.4788L63.2995 20.5456L66.1021 19.6357V19.3791Z" fill="white"/>
</svg>
