<svg width="39" height="24" viewBox="0 0 39 24" fill="none" xmlns="http://www.w3.org/2000/svg">
<path d="M19.2739 23.9274C19.1421 23.9274 19.0196 23.8897 18.9065 23.8238L17.729 23.1267C17.55 23.023 17.6442 22.9948 17.7008 22.9759C17.9363 22.8912 17.9834 22.8723 18.2377 22.731C18.266 22.7122 18.2942 22.7216 18.3225 22.7404L19.2268 23.2774C19.2551 23.2962 19.3022 23.2962 19.3399 23.2774L22.8631 21.2426C22.8913 21.2238 22.9196 21.1861 22.9196 21.1484V17.0788C22.9196 17.0412 22.9007 17.0035 22.8631 16.9846L19.3399 14.9498C19.3116 14.931 19.2645 14.931 19.2363 14.9498L15.7131 16.9846C15.6754 17.0035 15.6565 17.0412 15.6565 17.0788V21.1484C15.6565 21.1861 15.6754 21.2238 15.7131 21.2426L16.6739 21.7984C17.2015 22.0622 17.5218 21.7513 17.5218 21.4404V17.418C17.5218 17.3614 17.5689 17.3144 17.6254 17.3144H18.0681C18.1247 17.3144 18.1718 17.3614 18.1718 17.418V21.4404C18.1718 22.1375 17.795 22.5426 17.1261 22.5426C16.9189 22.5426 16.7587 22.5426 16.316 22.3259L15.3928 21.789C15.1667 21.6571 15.0254 21.4122 15.0254 21.1484V17.0788C15.0254 16.8151 15.1667 16.5701 15.3928 16.4383L18.916 14.4035C19.1421 14.2716 19.4341 14.2716 19.6602 14.4035L23.1834 16.4383C23.4094 16.5701 23.5508 16.8151 23.5508 17.0788V21.1484C23.5508 21.4122 23.4094 21.6571 23.1834 21.789L19.6602 23.8238C19.5377 23.8897 19.4058 23.9274 19.2739 23.9274Z" fill="#689F63"/>
<path d="M20.3667 21.1202C18.8217 21.1202 18.5015 20.4137 18.5015 19.8202C18.5015 19.7637 18.5486 19.7166 18.6051 19.7166H19.0573C19.1044 19.7166 19.1515 19.7543 19.1609 19.8014C19.2268 20.263 19.4341 20.4985 20.3667 20.4985C21.1109 20.4985 21.4218 20.3289 21.4218 19.9333C21.4218 19.7072 21.3275 19.5376 20.1783 19.4246C19.2174 19.3304 18.6145 19.1137 18.6145 18.3412C18.6145 17.6253 19.2174 17.2014 20.216 17.2014C21.3464 17.2014 21.9022 17.597 21.9776 18.4354C21.9776 18.4637 21.9681 18.492 21.9493 18.5108C21.9304 18.5296 21.9022 18.5391 21.8739 18.5391H21.4123C21.3652 18.5391 21.3276 18.5014 21.3181 18.4637C21.2051 17.9738 20.9413 17.8231 20.216 17.8231C19.4058 17.8231 19.3116 18.1057 19.3116 18.3224C19.3116 18.5767 19.4247 18.6521 20.5174 18.8028C21.6007 18.9441 22.1094 19.1514 22.1094 19.9144C22.1188 20.6869 21.4783 21.1296 20.3667 21.1202ZM24.6529 16.8057H24.7754C24.8696 16.8057 24.8884 16.7398 24.8884 16.7021C24.8884 16.5985 24.8131 16.5985 24.7754 16.5985H24.6529V16.8057ZM24.5022 16.476H24.766C24.8602 16.476 25.0297 16.476 25.0297 16.6738C25.0297 16.8151 24.9355 16.8434 24.8884 16.8622C24.992 16.8717 25.0015 16.9376 25.0109 17.0318C25.0203 17.0883 25.0297 17.2014 25.0486 17.2296H24.8884C24.879 17.192 24.8602 17.0036 24.8602 16.9847C24.8507 16.9376 24.8319 16.9188 24.7848 16.9188H24.6529V17.2202H24.5022V16.476ZM24.1913 16.8528C24.1913 17.1637 24.4457 17.4275 24.7565 17.4275C25.0768 17.4275 25.3312 17.1637 25.3312 16.8528C25.3312 16.5325 25.0768 16.2876 24.7565 16.2876C24.4457 16.2876 24.1913 16.5325 24.1913 16.8528ZM25.4348 16.8528C25.4348 17.2296 25.1334 17.5311 24.7565 17.5311C24.3891 17.5311 24.0783 17.2296 24.0783 16.8528C24.0783 16.4666 24.3891 16.1746 24.7565 16.1746C25.1239 16.1746 25.4348 16.476 25.4348 16.8528Z" fill="#689F63"/>
<path fill-rule="evenodd" clip-rule="evenodd" d="M8.36522 7.99783C8.36522 7.83769 8.28044 7.68695 8.13913 7.60217L4.4087 5.45435C4.34276 5.41667 4.27681 5.39783 4.20145 5.39783H4.16376C4.0884 5.39783 4.02246 5.41667 3.95652 5.45435L0.226089 7.60217C0.0847849 7.68695 0 7.83769 0 7.99783L0.00941799 13.7913C0.00941799 13.8761 0.047106 13.9515 0.122468 13.9891C0.18841 14.0268 0.273184 14.0268 0.348546 13.9891L2.57174 12.7174C2.71305 12.6326 2.79782 12.4819 2.79782 12.3217V9.6087C2.79782 9.44855 2.88261 9.29783 3.02391 9.21305L3.96594 8.66667C4.03188 8.62899 4.11667 8.60073 4.19203 8.60073C4.26739 8.60073 4.35218 8.61957 4.41812 8.65725L5.36015 9.20362C5.50145 9.27898 5.58624 9.42972 5.58624 9.58986V12.3029C5.58624 12.463 5.67101 12.6138 5.81231 12.6986L8.02608 13.9703C8.09202 14.008 8.18623 14.008 8.25217 13.9703C8.31811 13.9326 8.36522 13.8572 8.36522 13.7725V7.99783ZM25.9906 11.0123C25.9906 11.05 25.9717 11.0877 25.9341 11.1065L24.6529 11.8507C24.6152 11.8696 24.5775 11.8696 24.5399 11.8507L23.2587 11.1065C23.221 11.0877 23.2022 11.05 23.2022 11.0123V9.53333C23.2022 9.49565 23.221 9.45797 23.2587 9.43913L24.5399 8.69493C24.5775 8.67609 24.6152 8.67609 24.6529 8.69493L25.9341 9.43913C25.9717 9.45797 25.9906 9.49565 25.9906 9.53333V11.0123ZM26.3391 0.0282609C26.2732 -0.00942029 26.1884 -0.00942029 26.113 0.0282609C26.0471 0.065942 26 0.141308 26 0.22609V5.96305C26 6.01957 25.9717 6.07609 25.9246 6.10435C25.8775 6.13261 25.8116 6.13261 25.7645 6.10435L24.8319 5.56739C24.6906 5.48261 24.521 5.48261 24.3797 5.56739L20.6399 7.72464C20.4985 7.8 20.4138 7.95072 20.4138 8.11087V12.4348C20.4138 12.5949 20.4985 12.7456 20.6399 12.8304L24.3797 14.9877C24.521 15.063 24.6906 15.063 24.8319 14.9877L28.5717 12.8304C28.713 12.7456 28.7978 12.6043 28.7978 12.4348V1.66739C28.7978 1.50724 28.713 1.35652 28.5623 1.27174L26.3391 0.0282609ZM38.7739 9.49566C38.9152 9.41088 39 9.26956 39 9.10942V8.06377C39 7.90362 38.9152 7.7529 38.7739 7.66812L35.0623 5.51087C34.921 5.42609 34.7515 5.42609 34.6101 5.51087L30.8797 7.66812C30.7384 7.7529 30.6536 7.8942 30.6536 8.06377V12.3783C30.6536 12.5384 30.7384 12.6891 30.8797 12.7739L34.5913 14.8935C34.7232 14.9688 34.8928 14.9688 35.0341 14.8935L37.2761 13.6406C37.342 13.6029 37.3891 13.5275 37.3891 13.4427C37.3891 13.358 37.342 13.2826 37.2761 13.2449L33.5174 11.0877C33.442 11.05 33.4043 10.9746 33.4043 10.8899V9.53333C33.4043 9.44855 33.442 9.37319 33.5174 9.33551L34.6855 8.65725C34.7514 8.61957 34.8456 8.61957 34.9116 8.65725L36.0797 9.33551C36.1457 9.37319 36.1927 9.44855 36.1927 9.53333V10.5978C36.1927 10.6732 36.2399 10.7485 36.3058 10.7957C36.3717 10.8333 36.4659 10.8333 36.5319 10.7957L38.7739 9.49566Z" fill="white"/>
<path fill-rule="evenodd" clip-rule="evenodd" d="M34.7796 9.2883C34.8079 9.26946 34.8362 9.26946 34.8644 9.2883L35.5804 9.7028C35.6086 9.72164 35.6275 9.7499 35.6275 9.77816V10.6071C35.6275 10.6354 35.6086 10.6637 35.5804 10.6825L34.8644 11.097C34.8362 11.1158 34.8079 11.1158 34.7796 11.097L34.0637 10.6825C34.0354 10.6637 34.0166 10.6354 34.0166 10.6071V9.77816C34.0166 9.7499 34.0354 9.72164 34.0637 9.7028L34.7796 9.2883Z" fill="#689F63"/>
<path d="M22.3072 7.31021L11.8412 2.17615L6.47168 13.1414L16.9376 18.2848L22.3072 7.31021Z" fill="url(#paint0_linear)"/>
<path d="M5.80298 8.82682L13.1885 18.85L22.9668 11.6152L15.5718 1.59204L5.80298 8.82682Z" fill="url(#paint1_linear)"/>
<path d="M10.4661 5.47314V14.9594H18.5487V5.47314H10.4661Z" fill="url(#paint2_linear)"/>
<defs>
<linearGradient id="paint0_linear" x1="17.07" y1="4.73806" x2="11.688" y2="15.6984" gradientUnits="userSpaceOnUse">
<stop offset="0.3" stop-color="#3E863D"/>
<stop offset="0.5" stop-color="#55934F"/>
<stop offset="0.8" stop-color="#5AAD45"/>
</linearGradient>
<linearGradient id="paint1_linear" x1="9.48721" y1="13.832" x2="19.2723" y2="6.61465" gradientUnits="userSpaceOnUse">
<stop offset="0.57" stop-color="#3F863E"/>
<stop offset="0.72" stop-color="#609F5F"/>
<stop offset="1" stop-color="#74AA63"/>
</linearGradient>
<linearGradient id="paint2_linear" x1="10.4688" y1="10.2165" x2="18.5502" y2="10.2165" gradientUnits="userSpaceOnUse">
<stop offset="0.16" stop-color="#6BBF47"/>
<stop offset="0.38" stop-color="#79B461"/>
<stop offset="0.47" stop-color="#75AC64"/>
<stop offset="0.7" stop-color="#659E5A"/>
<stop offset="0.9" stop-color="#3E863D"/>
</linearGradient>
</defs>
</svg>
