<svg width="25" height="26" viewBox="0 0 25 26" fill="none" xmlns="http://www.w3.org/2000/svg">
<path d="M24.287 18.6346L18.8182 16.2908C18.5846 16.1913 18.3249 16.1703 18.0783 16.2311C17.8318 16.2918 17.6116 16.431 17.451 16.6278L15.0291 19.5868C11.2281 17.7947 8.16919 14.7358 6.37706 10.9348L9.3361 8.51287C9.53321 8.35255 9.67272 8.13238 9.73352 7.88569C9.79431 7.63899 9.77307 7.37921 9.67302 7.14566L7.32923 1.67682C7.21942 1.42506 7.0252 1.21951 6.78007 1.0956C6.53494 0.971702 6.25426 0.937216 5.98643 0.998093L0.908219 2.16999C0.649996 2.22962 0.419609 2.37501 0.25466 2.58244C0.0897111 2.78987 -5.94839e-05 3.04708 2.95718e-08 3.3121C2.95718e-08 15.8367 10.1515 25.9687 22.6566 25.9687C22.9217 25.9689 23.1791 25.8792 23.3866 25.7142C23.5941 25.5493 23.7396 25.3188 23.7992 25.0605L24.9711 19.9823C25.0316 19.7132 24.9964 19.4314 24.8715 19.1854C24.7467 18.9394 24.54 18.7447 24.287 18.6346Z" fill="white"/>
</svg>
