<svg width="39" height="35" viewBox="0 0 39 35" fill="none" xmlns="http://www.w3.org/2000/svg">
<path d="M39 17.3447C39 14.7583 35.767 12.3194 30.7984 10.7993C31.9442 5.7513 31.4337 1.72425 29.1876 0.442397C28.6658 0.136115 28.0646 0 27.4066 0V1.76963C27.7696 1.76963 28.0646 1.83769 28.3141 1.97381C29.3918 2.59772 29.8682 4.95723 29.4939 7.98603C29.4031 8.73472 29.267 9.51745 29.0855 10.3229C27.5314 9.93717 25.8298 9.64222 24.0375 9.46072C22.9599 7.98603 21.8482 6.6588 20.7251 5.49039C23.3115 3.0855 25.7504 1.76963 27.4066 1.76963V0C25.2173 0 22.3586 1.5541 19.466 4.25393C16.5733 1.56544 13.7147 0.0226821 11.5253 0.0226821V1.79231C13.1702 1.79231 15.6091 3.10819 18.2068 5.49039C17.0951 6.6588 15.9834 7.98603 14.9284 9.46072C13.1361 9.65357 11.4346 9.94851 9.86911 10.3342C9.68761 9.54014 9.55148 8.76875 9.46073 8.03141C9.08639 4.99127 9.55148 2.63176 10.6178 2.00785C10.856 1.86038 11.1623 1.80365 11.5366 1.80365V0.0226821C10.8674 0.0226821 10.2661 0.170154 9.74433 0.465093C7.5096 1.74694 7.01047 5.76265 8.16754 10.7993C3.22164 12.3194 0 14.7696 0 17.3333C0 19.9197 3.23298 22.37 8.20157 23.8787C7.05585 28.938 7.56632 32.9537 9.81239 34.2356C10.3342 34.5419 10.9354 34.678 11.6047 34.678C13.7941 34.678 16.6527 33.1239 19.5454 30.4127C22.438 33.1012 25.2967 34.644 27.486 34.644C28.1553 34.644 28.7565 34.4965 29.2784 34.2016C31.5131 32.9197 32.0122 28.904 30.8551 23.8674C35.7897 22.37 39 19.9197 39 17.3447ZM28.6545 12.0471C28.3595 13.0681 27.9965 14.123 27.5768 15.1893C27.2478 14.5541 26.9075 13.9188 26.5332 13.2836C26.1702 12.6483 25.7731 12.0244 25.3874 11.4232C26.5218 11.582 27.6108 11.7862 28.6545 12.0471ZM25.0131 20.5096C24.3892 21.5873 23.7539 22.5969 23.096 23.5497C21.9162 23.6518 20.7138 23.7086 19.5 23.7086C18.2976 23.7086 17.0951 23.6518 15.9267 23.5611C15.2688 22.6195 14.6222 21.6099 13.9983 20.5436C13.397 19.5 12.8412 18.445 12.3421 17.3787C12.8298 16.3124 13.397 15.2461 13.9869 14.2138C14.6108 13.1361 15.2461 12.1265 15.904 11.1736C17.0838 11.0716 18.2862 11.0148 19.5 11.0148C20.7024 11.0148 21.9049 11.0715 23.0733 11.1623C23.7312 12.1038 24.3778 13.1134 25.0017 14.1798C25.603 15.2234 26.1588 16.2783 26.6579 17.3447C26.1588 18.3996 25.6143 19.466 25.0131 20.5096ZM27.5768 19.4773C28.0079 20.5436 28.3709 21.6099 28.6771 22.6422C27.6335 22.8918 26.5332 23.1073 25.3988 23.2775C25.7845 22.6649 26.1815 22.041 26.5445 21.3944C26.9075 20.7592 27.2592 20.1126 27.5768 19.4773ZM19.5227 27.9511C18.7853 27.1911 18.048 26.3403 17.3106 25.4101C18.0253 25.4442 18.7627 25.4668 19.5 25.4668C20.2487 25.4668 20.986 25.4555 21.712 25.4101C20.986 26.3403 20.2487 27.1911 19.5227 27.9511ZM13.6012 23.2661C12.4668 23.096 11.3778 22.8918 10.3456 22.6422C10.6405 21.6213 11.0035 20.555 11.4232 19.5C11.7522 20.1352 12.0925 20.7705 12.4668 21.4058C12.8298 22.0524 13.2155 22.6649 13.6012 23.2661ZM19.4773 6.73821C20.2147 7.49824 20.952 8.34903 21.6894 9.27922C20.9747 9.24519 20.2373 9.2225 19.5 9.2225C18.7513 9.2225 18.014 9.23385 17.288 9.27922C18.014 8.34903 18.7513 7.49824 19.4773 6.73821ZM13.6012 11.4119C13.2155 12.0244 12.8185 12.6483 12.4555 13.2949C12.0925 13.9302 11.7522 14.5654 11.4232 15.2007C10.9921 14.1344 10.6291 13.0681 10.3229 12.0358C11.3665 11.7976 12.4555 11.582 13.6012 11.4119ZM6.39791 21.3604C3.58464 20.1579 1.75829 18.5811 1.75829 17.3333C1.75829 16.0855 3.5733 14.5087 6.39791 13.3176C7.07853 13.0227 7.82722 12.7618 8.5986 12.5122C9.05236 14.0663 9.65358 15.6885 10.3909 17.356C9.66492 19.0122 9.07504 20.623 8.62129 22.1771C7.83857 21.9276 7.08988 21.6553 6.39791 21.3604ZM10.6745 32.7155C9.59686 32.0916 9.12042 29.7321 9.49477 26.7033C9.58552 25.9546 9.72164 25.1719 9.90314 24.3665C11.4572 24.7522 13.1588 25.0358 14.9511 25.2286C16.0288 26.7033 17.1405 28.0305 18.2635 29.1989C15.6771 31.6038 13.2382 32.9197 11.582 32.9197C11.219 32.9311 10.9127 32.8516 10.6745 32.7155ZM29.5393 26.6693C29.9136 29.7094 29.4485 32.0689 28.3822 32.6928C28.144 32.8403 27.8377 32.897 27.4634 32.897C25.8185 32.897 23.3796 31.5811 20.7818 29.1989C21.8935 28.0305 23.0052 26.7033 24.0602 25.2286C25.8525 25.0358 27.5541 24.7408 29.1195 24.3551C29.301 25.1606 29.4485 25.9206 29.5393 26.6693ZM32.6021 21.3604C31.9215 21.6553 31.1728 21.9162 30.4014 22.1658C29.9476 20.6117 29.3464 18.9895 28.6091 17.322C29.3351 15.6658 29.925 14.055 30.3787 12.5009C31.1614 12.7504 31.9101 13.0227 32.6134 13.3176C35.4267 14.5201 37.2531 16.0855 37.2531 17.3333C37.2304 18.5925 35.4154 20.1693 32.6021 21.3604Z" fill="#61DAFB"/>
</svg>
